<svg id="svg" version="1.1" xmlns="http://www.w3.org/2000/svg" xmlns:xlink="http://www.w3.org/1999/xlink" width="400" height="400" viewBox="0, 0, 400,400"><g id="svgg"><path id="path0" d="M110.663 26.453 C 108.776 27.550,108.800 26.979,108.801 70.087 C 108.801 115.381,108.625 112.613,111.600 114.099 C 113.669 115.133,155.288 115.175,157.457 114.146 C 160.153 112.867,160.000 115.522,160.000 69.958 L 160.000 28.676 158.980 27.338 L 157.959 26.000 134.680 26.012 C 118.868 26.020,111.163 26.162,110.663 26.453 M174.769 27.169 L 173.600 28.338 173.600 68.092 C 173.600 113.160,173.293 108.799,177.002 116.357 C 188.633 140.056,205.366 146.807,251.200 146.292 C 260.651 146.186,261.536 146.373,263.943 148.984 C 267.536 152.882,269.679 158.903,272.240 172.292 C 272.392 173.083,272.602 173.163,274.106 173.005 C 275.037 172.907,278.500 172.723,281.800 172.596 C 285.100 172.469,288.430 172.231,289.200 172.066 L 290.600 171.766 290.478 169.383 C 290.411 168.072,290.193 166.010,289.994 164.800 C 289.795 163.590,289.423 161.340,289.168 159.800 C 286.005 140.709,278.505 131.480,264.800 129.813 C 261.830 129.452,258.410 129.000,257.200 128.808 C 255.990 128.617,253.650 128.254,252.000 128.002 C 248.002 127.390,244.322 126.824,241.400 126.371 C 240.080 126.166,237.650 125.810,236.000 125.579 C 231.251 124.916,229.359 122.389,225.740 111.873 L 224.200 107.400 224.000 67.665 L 223.800 27.930 222.678 26.965 L 221.555 26.000 198.747 26.000 L 175.938 26.000 174.769 27.169 M238.620 27.338 L 237.600 28.676 237.600 69.958 C 237.600 115.522,237.447 112.867,240.143 114.146 C 242.312 115.175,283.931 115.133,286.000 114.099 C 288.975 112.613,288.799 115.381,288.799 70.087 C 288.800 26.736,288.833 27.488,286.860 26.432 C 286.308 26.137,278.705 26.000,262.847 26.000 L 239.641 26.000 238.620 27.338 M116.227 124.379 L 111.853 124.600 110.799 126.400 C 108.222 130.800,108.042 136.228,110.364 139.513 L 111.009 140.426 131.005 140.568 C 163.380 140.797,166.143 141.730,170.189 153.800 C 171.594 157.988,171.725 159.643,171.961 176.200 C 172.226 194.794,172.228 194.814,174.800 196.099 C 176.961 197.179,253.839 197.179,256.000 196.099 C 258.738 194.732,258.799 194.343,258.799 178.287 C 258.800 162.918,258.692 161.994,256.755 160.752 C 255.215 159.765,250.629 158.746,244.400 158.007 C 242.310 157.759,240.060 157.463,239.400 157.348 C 238.740 157.233,236.490 156.982,234.400 156.790 C 219.177 155.394,207.540 153.766,201.400 152.174 C 184.266 147.730,179.517 144.685,173.984 134.598 C 171.004 129.165,168.494 126.039,166.500 125.276 C 163.845 124.261,130.379 123.664,116.227 124.379 M109.462 155.931 C 108.479 157.017,108.448 193.590,109.429 194.571 C 109.986 195.129,112.734 195.200,133.638 195.200 L 157.220 195.200 157.610 194.174 C 158.330 192.280,158.115 157.143,157.377 156.089 L 156.755 155.200 133.439 155.200 C 111.360 155.200,110.089 155.239,109.462 155.931 M276.455 183.364 C 274.001 186.549,271.907 189.390,271.803 189.677 C 271.699 189.965,273.657 192.358,276.153 194.996 L 280.692 199.793 282.308 198.396 C 283.196 197.628,285.471 195.661,287.362 194.025 C 289.253 192.389,290.800 190.933,290.800 190.789 C 290.800 190.403,281.621 177.819,281.242 177.686 C 281.064 177.624,278.910 180.179,276.455 183.364 M109.776 206.168 C 108.647 206.993,108.337 254.825,109.453 256.058 C 110.211 256.896,155.899 257.231,157.200 256.408 C 158.259 255.739,158.088 206.946,157.024 206.168 C 155.866 205.321,110.934 205.321,109.776 206.168 M174.510 206.437 C 171.048 208.151,171.200 207.006,171.200 231.422 L 171.200 252.950 172.085 254.242 C 173.962 256.982,169.853 256.800,229.830 256.800 C 282.343 256.800,284.078 256.776,285.516 256.038 C 288.692 254.408,288.586 255.212,288.713 231.788 L 288.827 210.977 287.896 209.188 C 287.230 207.910,286.461 207.143,285.198 206.500 L 283.430 205.600 229.815 205.600 C 176.223 205.601,176.199 205.601,174.510 206.437 M118.800 262.195 C 109.117 264.357,107.047 268.506,107.018 285.800 C 106.993 300.549,107.885 303.423,113.764 307.541 C 116.049 309.142,118.333 309.966,125.000 311.597 C 128.921 312.557,129.681 313.063,131.143 315.687 C 133.232 319.436,133.380 335.213,131.356 338.319 C 129.146 341.709,121.966 341.692,119.450 338.290 C 118.403 336.874,118.057 333.528,118.025 324.488 L 118.000 317.577 112.700 317.688 L 107.400 317.800 107.292 326.509 C 107.065 344.877,111.295 350.416,125.531 350.394 C 139.803 350.371,144.000 344.876,144.000 326.211 C 144.000 308.534,141.032 303.961,127.647 301.016 C 119.205 299.159,118.360 297.659,118.311 284.438 C 118.268 273.032,119.244 271.198,125.359 271.201 C 131.580 271.205,132.579 273.105,132.609 285.000 L 132.630 293.400 138.015 293.400 L 143.400 293.400 143.381 284.000 C 143.358 272.567,142.837 270.218,139.517 266.585 C 135.533 262.227,126.876 260.392,118.800 262.195 M190.348 262.176 C 184.684 263.417,181.073 266.688,179.117 272.346 L 178.200 275.000 178.202 306.000 C 178.204 333.982,178.270 337.225,178.883 339.311 C 181.253 347.377,185.995 350.372,196.400 350.372 C 211.382 350.372,215.340 345.342,215.109 326.600 L 215.000 317.800 209.600 317.800 L 204.200 317.800 204.000 327.000 C 203.731 339.355,202.980 340.822,196.872 340.916 C 189.198 341.034,188.883 339.128,189.394 295.650 C 189.654 273.540,189.580 274.171,192.137 272.221 C 194.095 270.727,198.701 270.725,200.657 272.216 C 202.921 273.943,202.983 274.238,203.200 284.200 L 203.400 293.400 209.149 293.511 L 214.898 293.623 214.696 283.711 C 214.497 273.913,214.405 273.193,212.896 269.659 C 210.215 263.378,200.129 260.031,190.348 262.176 M245.067 262.667 C 244.920 262.813,244.800 265.036,244.800 267.607 L 244.800 272.280 248.461 272.540 C 250.475 272.683,253.265 272.800,254.661 272.800 C 256.058 272.800,257.235 272.845,257.277 272.900 C 257.320 272.955,257.455 290.190,257.577 311.200 L 257.800 349.400 263.300 349.511 L 268.800 349.623 268.800 311.211 L 268.800 272.800 275.013 272.800 C 282.353 272.800,281.802 273.300,281.408 266.988 L 281.121 262.400 263.227 262.400 C 253.386 262.400,245.213 262.520,245.067 262.667 " stroke="none" fill="#fae560" fill-rule="evenodd"></path><path id="path1" d="M0.000 200.000 L 0.000 400.000 200.000 400.000 L 400.000 400.000 400.000 200.000 L 400.000 0.000 200.000 0.000 L 0.000 0.000 0.000 200.000 M158.184 25.819 C 160.725 27.025,160.589 24.686,160.712 69.400 C 160.836 115.066,160.976 112.679,158.073 114.484 L 156.600 115.400 135.493 115.513 C 112.814 115.635,112.087 115.581,109.884 113.613 L 108.600 112.466 108.498 70.733 C 108.385 24.723,108.270 26.976,110.800 25.711 C 112.449 24.888,156.432 24.988,158.184 25.819 M222.813 26.200 C 224.858 28.023,224.800 26.801,224.800 68.334 L 224.800 107.094 226.007 110.757 C 227.655 115.758,230.096 121.326,231.376 123.004 C 232.498 124.475,232.527 124.486,237.200 125.181 C 238.850 125.427,241.325 125.802,242.700 126.014 C 244.075 126.226,246.325 126.574,247.700 126.786 C 249.075 126.998,251.550 127.370,253.200 127.611 C 254.850 127.852,257.190 128.211,258.400 128.409 C 259.610 128.606,262.490 128.973,264.800 129.224 C 276.388 130.483,283.191 136.726,287.352 149.920 C 289.159 155.647,291.200 166.762,291.200 170.872 L 291.200 172.678 286.400 172.939 C 283.760 173.083,279.461 173.316,276.846 173.459 C 272.403 173.701,272.076 173.668,271.860 172.959 C 271.732 172.541,271.175 169.947,270.623 167.192 C 268.815 158.189,266.456 152.418,263.287 149.249 C 260.831 146.793,261.714 146.902,242.000 146.616 C 227.970 146.413,224.485 146.206,217.400 145.156 C 207.689 143.717,198.877 140.802,192.800 137.017 C 186.292 132.965,176.490 119.065,173.647 109.858 C 172.556 106.325,172.288 30.151,173.359 28.079 C 174.893 25.112,173.384 25.270,199.458 25.340 C 221.307 25.398,221.941 25.422,222.813 26.200 M287.562 26.165 C 289.223 27.669,289.242 28.228,289.119 71.133 L 289.000 112.466 287.716 113.613 C 285.513 115.581,284.786 115.635,262.107 115.513 L 241.000 115.400 239.540 114.492 C 236.652 112.696,236.800 115.096,236.800 70.000 C 236.800 25.243,236.691 27.153,239.329 25.838 C 241.462 24.775,286.362 25.079,287.562 26.165 M166.855 124.881 C 169.485 126.087,171.211 128.177,174.217 133.800 C 178.167 141.188,179.466 142.691,184.000 145.126 C 194.106 150.551,205.521 153.252,228.200 155.582 C 230.400 155.809,234.630 156.284,237.600 156.638 C 240.570 156.993,244.350 157.440,246.000 157.632 C 259.719 159.224,259.197 158.399,259.199 178.506 L 259.200 194.012 257.831 195.506 L 256.461 197.000 215.473 197.000 C 175.122 197.000,174.470 196.988,173.605 196.204 C 171.823 194.592,171.810 194.465,171.547 176.800 C 171.285 159.183,171.245 158.744,169.398 153.400 C 165.470 142.036,159.839 140.421,125.970 140.946 L 110.539 141.185 109.570 139.493 C 107.314 135.555,108.977 124.775,111.985 123.833 C 112.323 123.728,124.300 123.687,138.600 123.744 L 164.600 123.847 166.855 124.881 M157.346 155.229 L 158.400 156.058 158.400 175.229 C 158.400 193.867,158.378 194.422,157.600 195.200 C 156.818 195.982,156.267 196.000,133.400 196.000 C 110.533 196.000,109.982 195.982,109.200 195.200 C 108.373 194.373,107.904 156.951,108.706 155.766 C 109.573 154.484,110.673 154.424,133.446 154.412 C 155.962 154.400,156.307 154.412,157.346 155.229 M286.391 183.453 C 289.321 187.472,291.194 190.403,291.121 190.855 C 290.969 191.799,281.664 200.000,280.746 200.000 C 279.874 200.000,270.723 190.377,270.974 189.723 C 271.164 189.229,274.711 184.533,278.696 179.500 C 281.415 176.066,280.761 175.730,286.391 183.453 M157.511 205.823 L 158.400 206.445 158.400 231.194 C 158.400 253.160,158.329 256.014,157.771 256.571 C 156.816 257.527,109.984 257.527,109.029 256.571 C 107.927 255.470,108.091 207.109,109.200 206.000 C 110.303 204.897,155.950 204.730,157.511 205.823 M286.475 206.477 C 289.325 208.651,289.246 207.893,289.116 231.895 L 289.000 253.400 288.036 254.685 C 286.015 257.379,290.156 257.200,229.800 257.200 C 169.161 257.200,173.557 257.402,171.600 254.528 L 170.600 253.059 170.490 231.682 L 170.380 210.305 171.373 208.609 C 172.379 206.893,173.589 205.857,175.017 205.489 C 175.448 205.378,200.384 205.313,230.431 205.344 L 285.062 205.400 286.475 206.477 M132.691 261.841 C 135.751 262.638,137.843 263.809,139.528 265.671 C 140.338 266.565,142.012 268.400,143.250 269.748 C 147.752 274.655,149.017 280.382,148.429 293.200 L 148.200 298.200 142.600 298.200 L 137.000 298.200 136.966 296.568 C 136.917 294.257,136.638 294.000,134.176 294.000 L 132.000 294.000 132.000 285.633 C 132.000 275.586,132.111 276.000,129.416 276.000 C 124.150 276.000,123.244 277.947,123.219 289.326 C 123.196 299.974,122.850 299.235,128.489 300.593 C 133.954 301.910,137.329 303.441,139.249 305.475 C 148.265 315.025,148.800 316.456,148.800 331.000 C 148.798 349.977,144.802 355.172,130.200 355.172 C 122.921 355.172,119.706 354.063,115.177 349.992 C 107.221 342.841,106.607 341.204,106.603 327.161 C 106.599 315.967,106.116 316.800,112.620 316.800 C 118.266 316.800,118.918 317.092,118.773 319.557 C 118.605 322.416,118.592 322.400,121.042 322.400 L 123.284 322.400 123.032 328.500 C 122.893 331.855,122.919 335.860,123.090 337.400 L 123.401 340.200 125.875 340.163 C 131.187 340.083,131.800 338.803,131.800 327.800 C 131.800 316.485,131.987 316.927,126.631 315.593 C 120.466 314.058,118.021 312.842,115.092 309.853 C 114.161 308.904,112.664 307.566,111.765 306.882 C 105.063 301.776,103.687 274.642,109.728 266.721 C 113.577 261.675,123.753 259.512,132.691 261.841 M203.699 261.819 C 206.809 262.582,208.989 263.752,210.601 265.522 C 217.344 272.930,217.400 273.005,218.310 275.823 C 219.629 279.911,220.481 292.436,219.743 296.900 L 219.495 298.400 213.769 298.400 L 208.042 298.400 207.921 296.300 L 207.800 294.200 205.400 294.000 L 203.000 293.800 202.800 285.000 L 202.600 276.200 200.586 276.082 C 198.162 275.940,196.153 277.084,195.164 279.170 C 194.384 280.814,193.929 307.759,194.344 327.800 L 194.600 340.200 196.600 340.309 C 202.162 340.612,202.953 339.026,203.200 327.072 L 203.400 317.400 209.400 317.400 L 215.400 317.400 215.507 319.000 C 215.726 322.288,215.808 322.400,218.008 322.400 L 220.000 322.400 219.986 331.700 C 219.957 350.544,216.253 355.172,201.200 355.172 C 193.412 355.172,190.184 354.138,186.339 350.412 C 185.083 349.195,183.407 347.682,182.615 347.049 C 177.953 343.326,177.582 340.962,177.332 313.400 C 177.011 278.010,177.422 272.626,180.836 267.471 C 184.539 261.880,194.210 259.489,203.699 261.819 M281.757 262.633 C 281.891 262.981,282.000 264.151,282.000 265.233 L 282.000 267.200 284.212 267.200 L 286.424 267.200 286.312 272.300 L 286.200 277.400 280.000 277.600 L 273.800 277.800 273.698 316.111 L 273.596 354.422 267.898 354.311 L 262.200 354.200 262.079 352.100 L 261.958 350.000 259.879 349.994 C 258.736 349.991,257.576 349.845,257.302 349.672 C 256.912 349.424,256.782 341.591,256.702 313.578 L 256.600 277.800 253.213 277.682 C 249.424 277.551,249.215 277.406,249.206 274.900 L 249.200 273.200 247.374 273.200 C 244.079 273.200,244.000 273.066,244.000 267.453 C 244.000 264.747,244.120 262.413,244.267 262.267 C 244.918 261.616,281.504 261.973,281.757 262.633 " stroke="none" fill="#343434" fill-rule="evenodd"></path><path id="path2" d="M122.900 25.500 C 129.225 25.562,139.575 25.562,145.900 25.500 C 152.225 25.438,147.050 25.387,134.400 25.387 C 121.750 25.387,116.575 25.438,122.900 25.500 M187.700 25.500 C 193.805 25.562,203.795 25.562,209.900 25.500 C 216.005 25.438,211.010 25.387,198.800 25.387 C 186.590 25.387,181.595 25.438,187.700 25.500 M251.472 25.500 C 257.671 25.562,267.931 25.562,274.272 25.500 C 280.612 25.438,275.540 25.387,263.000 25.387 C 250.460 25.387,245.272 25.438,251.472 25.500 M108.593 70.200 C 108.593 93.080,108.641 102.381,108.700 90.869 C 108.759 79.358,108.759 60.638,108.700 49.269 C 108.641 37.901,108.593 47.320,108.593 70.200 M236.993 70.000 C 236.993 92.550,237.041 101.775,237.100 90.500 C 237.159 79.225,237.159 60.775,237.100 49.500 C 237.041 38.225,236.993 47.450,236.993 70.000 M160.593 70.200 C 160.593 92.640,160.641 101.761,160.700 90.469 C 160.759 79.178,160.759 60.818,160.700 49.669 C 160.641 38.521,160.593 47.760,160.593 70.200 M124.128 115.500 C 130.029 115.562,139.569 115.562,145.328 115.500 C 151.088 115.437,146.260 115.386,134.600 115.386 C 122.940 115.386,118.228 115.437,124.128 115.500 M252.528 115.500 C 258.429 115.562,267.969 115.562,273.728 115.500 C 279.488 115.437,274.660 115.386,263.000 115.386 C 251.340 115.386,246.628 115.437,252.528 115.500 M114.700 123.896 C 116.075 123.974,118.325 123.974,119.700 123.896 C 121.075 123.818,119.950 123.754,117.200 123.754 C 114.450 123.754,113.325 123.818,114.700 123.896 M150.100 123.894 C 151.145 123.976,152.855 123.976,153.900 123.894 C 154.945 123.812,154.090 123.744,152.000 123.744 C 149.910 123.744,149.055 123.812,150.100 123.894 M263.700 129.476 C 264.085 129.576,264.715 129.576,265.100 129.476 C 265.485 129.375,265.170 129.293,264.400 129.293 C 263.630 129.293,263.315 129.375,263.700 129.476 M187.800 132.800 C 189.106 134.120,190.265 135.200,190.375 135.200 C 190.485 135.200,189.506 134.120,188.200 132.800 C 186.894 131.480,185.735 130.400,185.625 130.400 C 185.515 130.400,186.494 131.480,187.800 132.800 M114.900 141.094 C 115.945 141.176,117.655 141.176,118.700 141.094 C 119.745 141.012,118.890 140.944,116.800 140.944 C 114.710 140.944,113.855 141.012,114.900 141.094 M145.305 141.087 C 145.914 141.179,146.814 141.177,147.305 141.082 C 147.797 140.987,147.300 140.911,146.200 140.914 C 145.100 140.917,144.697 140.995,145.305 141.087 M226.305 146.283 C 226.802 146.379,227.522 146.375,227.905 146.275 C 228.287 146.175,227.880 146.096,227.000 146.101 C 226.120 146.105,225.807 146.187,226.305 146.283 M237.900 146.682 C 238.395 146.778,239.205 146.778,239.700 146.682 C 240.195 146.587,239.790 146.509,238.800 146.509 C 237.810 146.509,237.405 146.587,237.900 146.682 M248.920 146.698 C 250.855 146.772,253.915 146.771,255.720 146.697 C 257.524 146.623,255.940 146.563,252.200 146.564 C 248.460 146.564,246.984 146.625,248.920 146.698 M108.585 175.200 C 108.585 185.870,108.637 190.235,108.700 184.900 C 108.763 179.565,108.763 170.835,108.700 165.500 C 108.637 160.165,108.585 164.530,108.585 175.200 M171.781 178.000 C 171.781 186.250,171.834 189.625,171.899 185.500 C 171.964 181.375,171.964 174.625,171.899 170.500 C 171.834 166.375,171.781 169.750,171.781 178.000 M281.900 173.082 C 282.395 173.178,283.205 173.178,283.700 173.082 C 284.195 172.987,283.790 172.909,282.800 172.909 C 281.810 172.909,281.405 172.987,281.900 173.082 M276.705 173.483 C 277.202 173.579,277.922 173.575,278.305 173.475 C 278.687 173.375,278.280 173.296,277.400 173.301 C 276.520 173.305,276.207 173.387,276.705 173.483 M275.800 195.600 C 277.106 196.920,278.265 198.000,278.375 198.000 C 278.485 198.000,277.506 196.920,276.200 195.600 C 274.894 194.280,273.735 193.200,273.625 193.200 C 273.515 193.200,274.494 194.280,275.800 195.600 M108.588 231.400 C 108.588 245.040,108.638 250.678,108.700 243.929 C 108.761 237.180,108.761 226.020,108.700 219.129 C 108.638 212.238,108.588 217.760,108.588 231.400 M121.529 257.100 C 128.199 257.161,138.999 257.161,145.529 257.100 C 152.058 257.038,146.600 256.988,133.400 256.988 C 120.200 256.988,114.858 257.038,121.529 257.100 M202.331 257.100 C 217.583 257.158,242.423 257.158,257.531 257.100 C 272.639 257.042,260.160 256.994,229.800 256.994 C 199.440 256.994,187.079 257.042,202.331 257.100 M124.505 261.087 C 125.114 261.179,126.014 261.177,126.505 261.082 C 126.997 260.987,126.500 260.911,125.400 260.914 C 124.300 260.917,123.897 260.995,124.505 261.087 M195.500 261.082 C 195.995 261.178,196.805 261.178,197.300 261.082 C 197.795 260.987,197.390 260.909,196.400 260.909 C 195.410 260.909,195.005 260.987,195.500 261.082 M120.505 261.487 C 121.114 261.579,122.014 261.577,122.505 261.482 C 122.997 261.387,122.500 261.311,121.400 261.314 C 120.300 261.317,119.897 261.395,120.505 261.487 M128.300 261.482 C 128.795 261.578,129.605 261.578,130.100 261.482 C 130.595 261.387,130.190 261.309,129.200 261.309 C 128.210 261.309,127.805 261.387,128.300 261.482 M191.900 261.482 C 192.395 261.578,193.205 261.578,193.700 261.482 C 194.195 261.387,193.790 261.309,192.800 261.309 C 191.810 261.309,191.405 261.387,191.900 261.482 M199.305 261.487 C 199.914 261.579,200.814 261.577,201.305 261.482 C 201.797 261.387,201.300 261.311,200.200 261.314 C 199.100 261.317,198.697 261.395,199.305 261.487 M117.000 262.000 C 116.496 262.217,116.422 262.344,116.800 262.344 C 117.130 262.344,117.760 262.189,118.200 262.000 C 118.704 261.783,118.778 261.656,118.400 261.656 C 118.070 261.656,117.440 261.811,117.000 262.000 M132.200 262.000 C 132.640 262.189,133.270 262.344,133.600 262.344 C 133.978 262.344,133.904 262.217,133.400 262.000 C 132.960 261.811,132.330 261.656,132.000 261.656 C 131.622 261.656,131.696 261.783,132.200 262.000 M188.600 262.000 C 188.096 262.217,188.022 262.344,188.400 262.344 C 188.730 262.344,189.360 262.189,189.800 262.000 C 190.304 261.783,190.378 261.656,190.000 261.656 C 189.670 261.656,189.040 261.811,188.600 262.000 M203.400 262.000 C 203.840 262.189,204.470 262.344,204.800 262.344 C 205.178 262.344,205.104 262.217,204.600 262.000 C 204.160 261.811,203.530 261.656,203.200 261.656 C 202.822 261.656,202.896 261.783,203.400 262.000 M244.267 262.267 C 243.898 262.636,243.929 272.309,244.300 272.539 C 244.465 272.641,244.600 270.447,244.600 267.662 L 244.600 262.600 263.200 262.394 L 281.800 262.188 263.167 262.094 C 252.918 262.042,244.413 262.120,244.267 262.267 M281.773 268.000 L 281.800 273.000 275.900 273.111 L 270.000 273.221 270.000 311.162 C 270.000 344.731,269.929 349.161,269.388 349.610 C 268.933 349.988,267.367 350.070,263.288 349.931 C 260.270 349.829,258.736 349.811,259.880 349.892 L 261.960 350.039 262.080 352.119 L 262.200 354.200 267.898 354.311 L 273.596 354.422 273.698 316.111 L 273.800 277.800 280.000 277.600 L 286.200 277.400 286.312 272.300 L 286.424 267.200 284.232 267.200 L 282.040 267.200 281.893 265.100 C 281.813 263.945,281.759 265.250,281.773 268.000 M113.000 263.667 C 111.144 264.693,107.993 268.548,108.004 269.778 C 108.006 270.010,108.535 269.280,109.180 268.155 C 110.265 266.265,111.567 264.912,113.446 263.724 C 114.400 263.120,114.065 263.078,113.000 263.667 M141.236 268.200 C 142.977 270.694,143.477 271.774,143.827 273.800 C 144.270 276.366,144.444 293.337,144.034 293.972 C 143.450 294.875,139.116 295.041,137.400 294.227 C 136.463 293.782,135.291 293.608,133.896 293.705 L 131.800 293.852 134.076 293.926 C 136.640 294.009,136.917 294.263,136.966 296.568 L 137.000 298.200 142.600 298.200 L 148.200 298.200 148.429 293.200 C 149.043 279.820,147.793 274.646,142.620 269.153 C 140.118 266.496,139.979 266.400,141.236 268.200 M212.436 268.200 C 215.197 272.155,215.261 272.498,215.473 284.502 L 215.640 294.004 214.594 294.402 C 213.228 294.922,208.400 294.920,208.400 294.400 C 208.400 294.180,208.265 294.000,208.100 293.999 C 207.935 293.999,207.862 294.989,207.937 296.199 L 208.074 298.400 213.785 298.400 L 219.495 298.400 219.743 296.900 C 220.469 292.511,219.589 279.463,218.320 275.800 C 217.313 272.892,217.292 272.861,213.820 269.162 C 211.333 266.513,211.187 266.411,212.436 268.200 M122.600 272.087 C 122.160 272.328,121.563 272.633,121.273 272.763 C 118.553 273.987,117.787 290.806,120.207 296.204 C 120.799 297.526,124.207 300.152,124.940 299.852 C 125.193 299.748,125.091 299.649,124.714 299.632 C 123.397 299.571,123.200 298.208,123.219 289.326 C 123.241 279.553,123.451 278.602,125.959 276.914 C 127.499 275.879,131.372 275.601,131.735 276.500 C 131.846 276.775,131.945 276.820,131.955 276.600 C 132.092 273.597,125.574 270.452,122.600 272.087 M194.200 272.000 C 194.064 272.220,193.636 272.400,193.249 272.400 C 192.211 272.400,191.068 273.941,190.500 276.106 C 189.817 278.710,189.776 333.440,190.455 335.572 C 191.237 338.023,191.654 338.695,192.744 339.256 C 193.325 339.555,194.038 340.025,194.329 340.300 C 194.899 340.839,198.303 340.977,199.066 340.491 C 199.322 340.328,198.422 340.196,197.066 340.197 L 194.600 340.200 194.344 327.800 C 193.929 307.759,194.384 280.814,195.164 279.170 C 196.153 277.084,198.162 275.940,200.586 276.082 L 202.600 276.200 202.800 285.000 L 203.000 293.800 205.102 293.835 L 207.205 293.870 205.202 293.714 L 203.200 293.558 203.200 285.059 C 203.200 279.710,203.046 276.406,202.784 276.144 C 202.555 275.915,202.044 275.124,201.648 274.385 C 201.251 273.646,200.674 272.925,200.364 272.783 C 200.054 272.641,199.397 272.316,198.905 272.062 C 197.807 271.495,194.539 271.452,194.200 272.000 M247.300 273.073 L 249.200 273.242 249.206 274.921 C 249.215 277.403,249.429 277.551,253.213 277.682 L 256.600 277.800 256.805 313.800 L 257.011 349.800 256.949 313.800 C 256.916 294.000,256.762 276.765,256.607 275.500 L 256.326 273.200 254.063 273.198 C 252.818 273.196,250.360 273.130,248.600 273.050 C 246.840 272.969,246.255 272.980,247.300 273.073 M106.600 275.200 C 106.445 276.328,106.402 277.336,106.506 277.439 C 106.609 277.542,106.816 276.700,106.967 275.567 C 107.117 274.434,107.159 273.426,107.061 273.328 C 106.963 273.229,106.755 274.072,106.600 275.200 M177.818 275.018 C 177.665 276.039,177.622 276.955,177.722 277.055 C 177.822 277.155,178.029 276.402,178.182 275.382 C 178.335 274.361,178.378 273.445,178.278 273.345 C 178.178 273.245,177.971 273.998,177.818 275.018 M132.131 283.800 C 132.133 285.340,132.205 285.921,132.292 285.091 C 132.379 284.261,132.377 283.001,132.289 282.291 C 132.200 281.581,132.129 282.260,132.131 283.800 M106.150 287.800 C 106.151 290.220,106.216 291.158,106.296 289.885 C 106.376 288.612,106.375 286.632,106.294 285.485 C 106.214 284.338,106.149 285.380,106.150 287.800 M177.386 305.800 C 177.386 317.020,177.437 321.668,177.500 316.128 C 177.562 310.588,177.562 301.408,177.500 295.728 C 177.437 290.048,177.386 294.580,177.386 305.800 M106.495 295.200 C 106.495 295.750,106.632 296.740,106.800 297.400 C 107.072 298.470,107.105 298.492,107.105 297.600 C 107.105 297.050,106.968 296.060,106.800 295.400 C 106.528 294.330,106.495 294.308,106.495 295.200 M129.800 301.200 C 130.240 301.389,130.870 301.544,131.200 301.544 C 131.578 301.544,131.504 301.417,131.000 301.200 C 130.560 301.011,129.930 300.856,129.600 300.856 C 129.222 300.856,129.296 300.983,129.800 301.200 M109.040 303.600 C 109.544 304.689,111.234 306.800,111.602 306.800 C 111.801 306.800,111.567 306.395,111.082 305.900 C 110.597 305.405,109.877 304.550,109.481 304.000 C 109.086 303.450,108.888 303.270,109.040 303.600 M139.025 305.607 C 143.160 310.170,143.730 311.510,144.466 318.400 C 145.109 324.416,144.754 337.734,143.937 338.239 C 143.752 338.353,143.600 338.898,143.600 339.449 C 143.600 343.337,137.438 350.000,133.842 350.000 C 133.357 350.000,132.770 350.190,132.538 350.422 C 131.966 350.994,118.834 350.994,118.262 350.422 C 118.030 350.190,117.516 350.000,117.121 350.000 C 116.725 350.000,115.456 349.332,114.301 348.515 C 112.208 347.034,112.210 347.039,115.000 349.730 C 119.374 353.949,122.788 355.172,130.200 355.172 C 144.802 355.172,148.798 349.977,148.800 331.000 C 148.800 318.450,147.796 314.628,143.229 309.800 C 141.981 308.480,140.694 307.040,140.371 306.600 C 140.047 306.160,139.246 305.353,138.591 304.807 C 137.753 304.108,137.882 304.345,139.025 305.607 M114.400 309.022 C 117.498 312.618,119.933 313.926,126.631 315.593 C 130.173 316.475,131.141 316.988,131.380 318.112 C 131.484 318.600,131.645 319.360,131.738 319.800 C 131.856 320.359,131.921 320.261,131.954 319.474 C 132.050 317.134,129.248 313.577,126.735 312.849 C 125.781 312.572,124.447 312.178,123.772 311.973 C 123.096 311.768,122.162 311.600,121.695 311.600 C 121.229 311.600,120.736 311.420,120.600 311.200 C 120.464 310.980,119.834 310.800,119.200 310.800 C 118.566 310.800,117.936 310.620,117.800 310.400 C 117.664 310.180,117.265 310.000,116.914 310.000 C 116.563 310.000,115.629 309.519,114.838 308.931 L 113.400 307.862 114.400 309.022 M107.280 317.280 C 107.016 317.544,106.824 318.309,106.853 318.980 C 106.905 320.191,106.907 320.189,107.153 318.800 L 107.400 317.400 112.864 317.400 C 115.869 317.400,118.119 317.268,117.864 317.106 C 117.058 316.595,107.813 316.747,107.280 317.280 M203.467 317.489 C 203.361 317.660,205.948 317.746,209.215 317.680 L 215.155 317.560 215.314 319.383 L 215.474 321.205 215.437 319.303 L 215.400 317.400 209.530 317.289 C 206.302 317.229,203.573 317.319,203.467 317.489 M118.493 319.200 C 118.493 319.970,118.575 320.285,118.676 319.900 C 118.776 319.515,118.776 318.885,118.676 318.500 C 118.575 318.115,118.493 318.430,118.493 319.200 M203.366 326.000 C 203.366 330.070,203.425 331.735,203.498 329.700 C 203.571 327.665,203.571 324.335,203.498 322.300 C 203.425 320.265,203.366 321.930,203.366 326.000 M106.565 327.200 C 106.565 331.050,106.625 332.625,106.698 330.700 C 106.771 328.775,106.771 325.625,106.698 323.700 C 106.625 321.775,106.565 323.350,106.565 327.200 M118.712 327.619 C 118.854 335.927,119.925 339.600,122.206 339.600 C 122.479 339.600,122.926 339.870,123.200 340.200 C 123.733 340.843,126.409 340.976,127.800 340.429 C 128.303 340.232,127.633 340.131,126.001 340.157 L 123.401 340.200 123.090 337.400 C 122.919 335.860,122.893 331.855,123.032 328.500 L 123.284 322.400 121.071 322.400 C 119.305 322.400,118.833 322.263,118.729 321.719 C 118.658 321.344,118.651 323.999,118.712 327.619 M215.632 321.820 C 215.614 322.051,215.809 322.449,216.063 322.703 C 216.599 323.239,215.723 338.677,215.137 339.039 C 214.951 339.154,214.800 339.656,214.800 340.156 C 214.800 342.461,211.061 347.581,208.504 348.777 C 207.897 349.061,207.087 349.452,206.705 349.647 C 206.323 349.841,205.659 350.000,205.229 350.000 C 204.799 350.000,204.353 350.153,204.237 350.340 C 203.582 351.400,189.218 351.400,188.563 350.340 C 188.447 350.153,188.078 350.000,187.742 350.000 C 187.114 350.000,184.341 348.211,182.183 346.414 C 181.514 345.856,181.653 346.030,182.492 346.800 C 183.331 347.570,185.053 349.195,186.319 350.412 C 190.202 354.143,193.419 355.172,201.200 355.172 C 216.253 355.172,219.957 350.544,219.986 331.700 L 220.000 322.400 218.033 322.400 C 216.834 322.400,215.988 322.205,215.865 321.900 C 215.754 321.625,215.649 321.589,215.632 321.820 M132.151 328.000 C 132.151 330.530,132.216 331.565,132.296 330.300 C 132.375 329.035,132.375 326.965,132.296 325.700 C 132.216 324.435,132.151 325.470,132.151 328.000 M106.901 335.800 C 106.905 336.680,106.987 336.993,107.083 336.495 C 107.179 335.998,107.175 335.278,107.075 334.895 C 106.975 334.513,106.896 334.920,106.901 335.800 M177.693 335.400 C 177.694 336.060,177.832 337.140,178.000 337.800 C 178.423 339.463,178.442 337.826,178.023 335.800 C 177.745 334.455,177.692 334.391,177.693 335.400 M131.632 335.520 C 131.588 336.793,130.579 338.629,129.513 339.376 C 129.023 339.719,128.826 340.000,129.075 340.000 C 130.264 340.000,132.360 336.338,131.871 335.117 C 131.757 334.833,131.649 335.014,131.632 335.520 M202.800 336.573 C 202.800 336.962,202.188 337.892,201.440 338.640 C 200.692 339.388,200.217 340.000,200.385 340.000 C 201.369 340.000,203.622 336.688,203.037 336.103 C 202.906 335.973,202.800 336.185,202.800 336.573 M107.256 338.400 C 107.256 338.730,107.411 339.360,107.600 339.800 C 107.817 340.304,107.944 340.378,107.944 340.000 C 107.944 339.670,107.789 339.040,107.600 338.600 C 107.383 338.096,107.256 338.022,107.256 338.400 M108.000 340.946 C 108.000 341.422,109.148 344.000,109.359 344.000 C 109.469 344.000,109.279 343.325,108.938 342.500 C 108.296 340.951,108.000 340.461,108.000 340.946 M179.200 342.153 C 179.200 342.582,180.390 344.800,180.621 344.800 C 180.731 344.800,180.523 344.215,180.159 343.500 C 179.417 342.040,179.200 341.736,179.200 342.153 " stroke="none" fill="#868375" fill-rule="evenodd"></path><path id="path3" d="M110.365 26.113 C 109.606 26.696,108.794 28.142,108.816 28.874 C 108.824 29.163,109.080 28.829,109.383 28.131 C 110.328 25.959,109.844 26.000,134.745 26.000 L 157.942 26.000 158.967 27.300 C 159.530 28.015,159.993 28.366,159.996 28.081 C 159.998 27.795,159.524 27.120,158.942 26.581 L 157.883 25.600 134.442 25.613 C 116.645 25.622,110.847 25.743,110.365 26.113 M174.743 26.510 C 172.738 28.234,172.752 27.927,172.880 69.200 C 172.992 105.250,173.048 107.932,173.723 109.800 C 174.121 110.900,174.530 112.051,174.632 112.357 C 174.735 112.664,174.905 112.828,175.010 112.723 C 175.116 112.617,174.842 111.484,174.401 110.203 C 173.621 107.935,173.600 106.850,173.600 68.107 L 173.600 28.338 174.769 27.169 L 175.938 26.000 198.800 26.000 L 221.662 26.000 222.831 27.169 L 224.000 28.338 224.040 67.269 C 224.062 88.681,224.224 106.650,224.400 107.200 C 224.886 108.717,224.879 30.899,224.393 29.149 C 224.171 28.352,223.517 27.227,222.940 26.649 L 221.891 25.600 198.845 25.600 L 175.800 25.601 174.743 26.510 M238.658 26.581 C 238.076 27.120,237.602 27.795,237.604 28.081 C 237.607 28.366,238.070 28.015,238.633 27.300 L 239.658 26.000 262.855 26.000 C 287.756 26.000,287.272 25.959,288.217 28.131 C 288.520 28.829,288.776 29.163,288.784 28.874 C 288.806 28.142,287.994 26.696,287.235 26.113 C 286.753 25.743,280.955 25.622,263.158 25.613 L 239.717 25.600 238.658 26.581 M160.098 69.920 C 159.990 115.497,160.147 112.870,157.457 114.146 C 156.235 114.726,153.648 114.800,134.540 114.799 C 110.440 114.799,110.926 114.853,109.501 112.000 C 109.011 111.019,108.805 110.839,108.813 111.400 C 108.869 115.079,109.668 115.197,134.641 115.199 L 156.682 115.200 158.041 114.285 C 160.538 112.604,160.413 115.045,160.300 69.942 L 160.196 28.600 160.098 69.920 M237.302 70.000 C 237.204 115.122,237.075 112.610,239.565 114.288 L 240.918 115.200 262.959 115.199 C 287.932 115.197,288.731 115.079,288.787 111.400 C 288.795 110.839,288.589 111.019,288.099 112.000 C 286.674 114.853,287.160 114.799,263.060 114.799 C 239.774 114.800,239.507 114.777,238.286 112.648 C 237.917 112.004,237.751 101.802,237.596 70.200 L 237.393 28.600 237.302 70.000 M288.992 70.200 C 288.992 92.420,289.041 101.569,289.100 90.530 C 289.159 79.492,289.159 61.312,289.100 50.130 C 289.041 38.949,288.992 47.980,288.992 70.200 M224.988 109.500 C 226.113 113.993,230.136 122.898,231.630 124.200 C 232.502 124.960,232.497 124.930,231.540 123.600 C 229.883 121.297,227.541 116.005,225.919 110.900 C 225.128 108.407,224.466 107.412,224.988 109.500 M175.200 113.315 C 175.200 114.124,178.192 119.652,180.767 123.600 C 186.045 131.694,192.088 137.174,198.739 139.900 C 202.089 141.273,201.629 140.695,198.171 139.188 C 190.199 135.712,182.284 127.223,177.153 116.645 C 175.677 113.602,175.200 112.788,175.200 113.315 M128.500 123.899 C 132.185 123.965,138.215 123.965,141.900 123.899 C 145.585 123.833,142.570 123.779,135.200 123.779 C 127.830 123.779,124.815 123.833,128.500 123.899 M111.463 124.300 C 110.140 126.460,108.807 129.278,108.832 129.862 C 108.852 130.342,109.014 130.186,109.293 129.415 C 109.530 128.763,110.203 127.413,110.788 126.415 L 111.853 124.600 116.227 124.379 L 120.600 124.158 116.124 124.079 C 113.662 124.036,111.565 124.135,111.463 124.300 M158.000 124.455 C 168.315 124.981,168.920 125.366,173.984 134.598 C 178.174 142.237,179.388 143.493,185.457 146.475 C 188.187 147.816,190.531 148.802,190.667 148.666 C 190.803 148.530,190.574 148.303,190.157 148.161 C 188.618 147.635,182.562 144.654,181.188 143.744 C 179.546 142.658,177.393 139.947,175.673 136.800 C 175.012 135.590,173.844 133.445,173.078 132.033 C 169.287 125.046,167.776 124.256,158.000 124.155 L 150.600 124.078 158.000 124.455 M233.800 125.200 C 235.561 125.648,237.799 125.648,236.400 125.200 C 235.850 125.024,234.770 124.883,234.000 124.887 L 232.600 124.895 233.800 125.200 M239.000 126.000 C 240.761 126.448,242.999 126.448,241.600 126.000 C 241.050 125.824,239.970 125.683,239.200 125.687 L 237.800 125.695 239.000 126.000 M244.200 126.800 C 245.961 127.248,248.199 127.248,246.800 126.800 C 246.250 126.624,245.170 126.483,244.400 126.487 L 243.000 126.495 244.200 126.800 M249.400 127.600 C 251.161 128.048,253.399 128.048,252.000 127.600 C 251.450 127.424,250.370 127.283,249.600 127.287 L 248.200 127.295 249.400 127.600 M254.600 128.400 C 256.361 128.848,258.599 128.848,257.200 128.400 C 256.650 128.224,255.570 128.083,254.800 128.087 L 253.400 128.095 254.600 128.400 M259.800 129.200 C 261.561 129.648,263.799 129.648,262.400 129.200 C 261.850 129.024,260.770 128.883,260.000 128.887 L 258.600 128.895 259.800 129.200 M264.433 129.745 C 264.525 129.825,265.860 129.998,267.400 130.128 C 269.166 130.278,269.905 130.235,269.400 130.011 C 268.647 129.677,264.075 129.433,264.433 129.745 M273.000 131.763 C 277.587 133.948,280.930 137.442,284.043 143.306 C 285.875 146.758,286.132 146.552,284.362 143.049 C 281.212 136.813,274.214 130.322,270.742 130.414 C 270.444 130.422,271.460 131.029,273.000 131.763 M108.524 133.400 C 108.526 134.720,108.601 135.212,108.690 134.493 C 108.779 133.774,108.777 132.694,108.686 132.093 C 108.595 131.492,108.522 132.080,108.524 133.400 M108.828 137.076 C 108.813 137.558,108.980 138.064,109.200 138.200 C 109.673 138.492,109.673 138.101,109.200 137.000 C 108.869 136.229,108.855 136.231,108.828 137.076 M109.602 139.025 C 109.598 139.910,111.247 141.199,112.316 141.146 C 113.387 141.092,113.388 141.089,112.400 140.922 C 111.850 140.830,110.996 140.269,110.502 139.677 C 110.008 139.085,109.603 138.791,109.602 139.025 M121.673 140.699 C 126.004 140.764,133.204 140.764,137.673 140.700 C 142.143 140.635,138.600 140.582,129.800 140.582 C 121.000 140.582,117.343 140.635,121.673 140.699 M149.600 141.220 C 150.590 141.397,152.390 141.529,153.600 141.514 L 155.800 141.487 153.600 141.183 C 152.390 141.016,150.590 140.884,149.600 140.890 L 147.800 140.900 149.600 141.220 M202.000 141.200 C 202.330 141.413,202.870 141.588,203.200 141.588 C 203.733 141.588,203.733 141.545,203.200 141.200 C 202.870 140.987,202.330 140.812,202.000 140.812 C 201.467 140.812,201.467 140.855,202.000 141.200 M158.600 142.198 C 159.700 142.478,160.960 142.845,161.400 143.012 C 161.938 143.218,162.069 143.185,161.800 142.913 C 161.211 142.318,158.836 141.593,157.640 141.644 C 156.932 141.674,157.239 141.851,158.600 142.198 M204.000 141.754 C 204.000 141.983,207.866 143.205,208.475 143.169 C 208.764 143.152,208.100 142.806,207.000 142.400 C 205.031 141.673,204.000 141.451,204.000 141.754 M164.750 145.500 C 167.220 147.984,169.187 151.574,170.191 155.429 C 170.801 157.772,171.200 158.604,171.200 157.533 C 171.200 154.719,167.687 147.662,165.013 145.102 C 162.205 142.416,161.998 142.731,164.750 145.500 M209.800 143.600 C 210.240 143.789,211.050 143.938,211.600 143.932 L 212.600 143.920 211.600 143.600 C 211.050 143.424,210.240 143.274,209.800 143.268 L 209.000 143.256 209.800 143.600 M213.800 144.400 C 214.240 144.589,215.230 144.735,216.000 144.725 L 217.400 144.705 216.200 144.400 C 214.403 143.943,212.736 143.943,213.800 144.400 M218.600 145.200 C 219.260 145.368,220.610 145.506,221.600 145.507 L 223.400 145.508 221.800 145.177 C 220.920 144.995,219.570 144.857,218.800 144.870 L 217.400 144.895 218.600 145.200 M226.600 145.995 C 229.038 146.318,238.272 146.525,237.967 146.250 C 237.875 146.167,234.740 146.004,231.000 145.889 C 226.872 145.761,225.143 145.803,226.600 145.995 M250.517 146.297 C 252.011 146.374,254.351 146.374,255.717 146.296 C 257.082 146.218,255.860 146.155,253.000 146.155 C 250.140 146.156,249.022 146.220,250.517 146.297 M241.491 146.689 C 242.201 146.777,243.461 146.779,244.291 146.692 C 245.121 146.605,244.540 146.533,243.000 146.531 C 241.460 146.529,240.781 146.600,241.491 146.689 M260.200 146.944 C 262.362 147.541,264.841 150.105,266.417 153.373 C 267.122 154.836,267.779 155.954,267.876 155.857 C 269.322 154.412,261.907 146.267,259.313 146.451 C 258.921 146.478,259.320 146.700,260.200 146.944 M285.734 146.913 C 285.872 147.305,286.369 148.890,286.838 150.434 C 287.307 151.979,287.791 153.143,287.913 153.021 C 288.186 152.748,286.405 147.154,285.869 146.600 C 285.617 146.340,285.570 146.449,285.734 146.913 M191.600 149.173 C 192.534 149.715,197.259 151.203,197.966 151.177 C 198.315 151.165,197.070 150.635,195.200 150.000 C 191.744 148.826,190.518 148.544,191.600 149.173 M199.200 151.600 C 199.530 151.813,200.160 151.988,200.600 151.988 C 201.262 151.988,201.297 151.921,200.800 151.600 C 200.470 151.387,199.840 151.212,199.400 151.212 C 198.738 151.212,198.703 151.279,199.200 151.600 M202.200 152.400 C 202.640 152.589,203.450 152.738,204.000 152.732 L 205.000 152.720 204.000 152.400 C 203.450 152.224,202.640 152.074,202.200 152.068 L 201.400 152.056 202.200 152.400 M206.000 153.200 C 206.550 153.376,207.540 153.520,208.200 153.520 C 209.367 153.520,209.372 153.511,208.400 153.200 C 207.850 153.024,206.860 152.880,206.200 152.880 C 205.033 152.880,205.028 152.889,206.000 153.200 M210.800 154.000 C 211.350 154.176,212.430 154.317,213.200 154.313 L 214.600 154.305 213.400 154.000 C 211.639 153.552,209.401 153.552,210.800 154.000 M288.056 154.200 C 288.056 154.640,288.211 155.360,288.400 155.800 L 288.744 156.600 288.744 155.800 C 288.744 155.360,288.589 154.640,288.400 154.200 L 288.056 153.400 288.056 154.200 M110.430 154.923 C 109.677 155.185,108.975 155.670,108.872 156.000 C 108.723 156.472,108.852 156.451,109.473 155.900 C 110.206 155.250,111.938 155.200,133.509 155.200 L 156.755 155.200 157.377 156.089 C 158.115 157.143,158.330 192.280,157.610 194.174 L 157.220 195.200 133.638 195.200 C 111.806 195.200,110.006 195.149,109.364 194.507 C 108.841 193.984,108.720 193.960,108.867 194.407 C 109.373 195.937,110.286 195.995,133.731 195.985 L 156.462 195.975 157.431 195.006 L 158.400 194.036 158.400 175.295 C 158.400 154.587,158.506 155.417,155.789 154.788 C 153.319 154.215,112.109 154.337,110.430 154.923 M216.200 154.800 C 216.860 154.968,218.120 155.105,219.000 155.105 C 220.517 155.105,220.538 155.090,219.400 154.800 C 218.740 154.632,217.480 154.495,216.600 154.495 C 215.083 154.495,215.062 154.510,216.200 154.800 M223.200 155.617 C 224.410 155.784,226.120 155.918,227.000 155.914 L 228.600 155.908 227.000 155.577 C 226.120 155.395,224.410 155.261,223.200 155.279 L 221.000 155.313 223.200 155.617 M230.600 156.423 C 231.480 156.605,233.100 156.742,234.200 156.727 L 236.200 156.700 234.400 156.380 C 233.410 156.203,231.790 156.067,230.800 156.076 L 229.000 156.092 230.600 156.423 M268.000 156.625 C 268.000 157.233,269.327 160.806,269.492 160.641 C 269.699 160.434,268.440 156.400,268.168 156.400 C 268.076 156.400,268.000 156.501,268.000 156.625 M238.200 157.200 C 238.860 157.368,240.120 157.505,241.000 157.505 C 242.517 157.505,242.538 157.490,241.400 157.200 C 240.740 157.032,239.480 156.895,238.600 156.895 C 237.083 156.895,237.062 156.910,238.200 157.200 M288.875 157.800 C 288.886 158.240,289.032 159.140,289.200 159.800 L 289.505 161.000 289.525 159.800 C 289.535 159.140,289.389 158.240,289.200 157.800 L 288.856 157.000 288.875 157.800 M244.600 158.023 C 245.480 158.205,246.740 158.343,247.400 158.330 L 248.600 158.305 247.400 158.000 C 246.740 157.832,245.480 157.694,244.600 157.693 L 243.000 157.692 244.600 158.023 M250.000 158.800 C 251.467 159.270,253.294 159.270,252.200 158.800 C 251.760 158.611,250.860 158.462,250.200 158.468 C 249.030 158.479,249.025 158.488,250.000 158.800 M171.287 159.800 C 171.291 160.460,171.432 161.540,171.600 162.200 L 171.905 163.400 171.913 162.000 C 171.917 161.230,171.776 160.150,171.600 159.600 C 171.289 158.630,171.280 158.635,171.287 159.800 M254.400 159.746 C 258.861 161.218,258.800 160.961,258.799 178.287 C 258.799 194.343,258.738 194.732,256.000 196.099 C 255.168 196.515,254.889 196.799,255.314 196.799 C 256.411 196.800,257.915 195.653,258.591 194.299 C 259.647 192.180,259.482 163.867,258.402 162.096 C 257.447 160.530,255.376 159.188,254.000 159.243 C 253.131 159.279,253.183 159.344,254.400 159.746 M269.656 161.800 C 269.656 162.240,269.811 162.960,270.000 163.400 L 270.344 164.200 270.344 163.400 C 270.344 162.960,270.189 162.240,270.000 161.800 L 269.656 161.000 269.656 161.800 M289.687 162.400 C 289.691 163.170,289.832 164.340,290.000 165.000 C 290.290 166.142,290.306 166.122,290.313 164.600 C 290.317 163.720,290.176 162.550,290.000 162.000 C 289.711 161.098,289.680 161.137,289.687 162.400 M270.456 165.200 C 270.456 165.750,270.611 166.560,270.800 167.000 C 271.113 167.729,271.144 167.712,271.144 166.800 C 271.144 166.250,270.989 165.440,270.800 165.000 C 270.487 164.271,270.456 164.288,270.456 165.200 M290.561 169.317 C 290.689 172.081,290.827 171.973,286.695 172.372 L 283.400 172.691 286.800 172.739 C 291.314 172.804,291.431 172.712,290.888 169.539 L 290.454 167.000 290.561 169.317 M271.268 169.200 C 271.287 170.850,271.917 172.556,271.932 171.000 C 271.938 170.340,271.789 169.440,271.600 169.000 C 271.287 168.273,271.257 168.291,271.268 169.200 M272.032 172.934 C 272.002 173.620,272.293 173.649,276.500 173.384 C 282.385 173.013,282.648 172.673,276.902 172.863 C 274.093 172.957,272.340 172.860,272.234 172.606 C 272.140 172.383,272.049 172.530,272.032 172.934 M280.400 177.578 C 280.070 178.001,278.810 179.637,277.600 181.215 C 276.390 182.793,274.452 185.280,273.293 186.742 C 270.628 190.104,270.556 189.866,275.909 195.367 C 281.074 200.674,280.732 200.536,283.170 198.300 C 284.190 197.365,286.413 195.366,288.112 193.859 C 291.705 190.670,291.649 190.871,289.669 188.237 C 287.769 185.709,285.102 182.051,283.000 179.091 C 281.180 176.528,281.208 176.545,280.400 177.578 M286.183 184.164 C 291.676 191.735,291.520 190.428,287.362 194.025 C 285.471 195.661,283.196 197.628,282.308 198.396 L 280.692 199.793 276.153 194.996 C 273.657 192.358,271.699 189.965,271.803 189.677 C 272.157 188.701,280.916 177.572,281.242 177.686 C 281.420 177.749,283.643 180.664,286.183 184.164 M172.036 192.886 C 171.990 194.263,174.146 196.806,175.341 196.784 C 176.055 196.771,175.998 196.681,175.000 196.246 C 173.494 195.589,172.977 194.966,172.472 193.200 C 172.104 191.911,172.069 191.886,172.036 192.886 M195.670 197.100 C 206.378 197.159,224.018 197.159,234.870 197.100 C 245.721 197.041,236.960 196.992,215.400 196.992 C 193.840 196.992,184.961 197.041,195.670 197.100 M121.872 205.500 C 128.071 205.562,138.331 205.562,144.672 205.500 C 151.012 205.438,145.940 205.387,133.400 205.387 C 120.860 205.387,115.672 205.438,121.872 205.500 M203.331 205.500 C 218.033 205.558,241.973 205.558,256.531 205.500 C 271.089 205.442,259.060 205.394,229.800 205.394 C 200.540 205.394,188.629 205.442,203.331 205.500 M109.211 206.187 C 108.943 206.509,108.817 207.004,108.931 207.287 C 109.063 207.617,109.148 207.558,109.168 207.120 C 109.186 206.746,109.515 206.256,109.900 206.032 C 110.285 205.808,110.397 205.619,110.149 205.612 C 109.901 205.605,109.479 205.864,109.211 206.187 M157.024 206.168 C 158.088 206.946,158.259 255.739,157.200 256.408 C 156.825 256.645,156.782 256.790,157.086 256.794 C 158.306 256.809,158.400 254.997,158.400 231.445 C 158.400 207.046,158.314 205.600,156.859 205.600 C 156.387 205.600,156.424 205.730,157.024 206.168 M173.250 206.673 C 170.380 208.934,170.415 208.625,170.437 231.200 C 170.448 242.310,170.611 251.760,170.800 252.200 C 170.998 252.660,171.156 243.847,171.172 231.447 C 171.204 207.008,171.051 208.149,174.510 206.437 C 175.591 205.902,175.912 205.602,175.400 205.605 C 174.960 205.607,173.992 206.088,173.250 206.673 M285.198 206.500 C 286.453 207.139,287.231 207.910,287.882 209.163 C 288.554 210.453,288.800 210.692,288.800 210.052 C 288.800 208.890,285.494 205.600,284.326 205.600 C 283.657 205.600,283.878 205.828,285.198 206.500 M288.986 231.400 C 288.986 242.400,289.037 246.842,289.100 241.272 C 289.163 235.702,289.162 226.702,289.100 221.272 C 289.037 215.842,288.985 220.400,288.986 231.400 M288.397 252.300 C 288.393 253.416,286.954 255.298,285.520 256.063 C 284.677 256.512,284.453 256.773,284.900 256.783 C 285.972 256.809,288.800 253.775,288.800 252.600 C 288.800 252.050,288.710 251.600,288.600 251.600 C 288.490 251.600,288.399 251.915,288.397 252.300 M171.200 253.492 C 171.200 254.239,173.944 256.803,174.713 256.774 C 175.158 256.758,174.977 256.537,174.200 256.149 C 173.540 255.818,172.595 254.977,172.100 254.280 C 171.605 253.582,171.200 253.228,171.200 253.492 " stroke="none" fill="#9c8c3c" fill-rule="evenodd"></path><path id="path4" d="M124.307 261.490 C 125.026 261.579,126.106 261.577,126.707 261.486 C 127.308 261.395,126.720 261.322,125.400 261.324 C 124.080 261.326,123.588 261.401,124.307 261.490 M195.300 261.487 C 195.905 261.578,196.895 261.578,197.500 261.487 C 198.105 261.395,197.610 261.320,196.400 261.320 C 195.190 261.320,194.695 261.395,195.300 261.487 M118.200 262.000 L 117.400 262.344 118.200 262.332 C 118.640 262.326,119.450 262.176,120.000 262.000 L 121.000 261.680 120.000 261.668 C 119.450 261.662,118.640 261.811,118.200 262.000 M129.633 261.747 C 129.725 261.828,130.520 262.004,131.400 262.138 C 132.515 262.307,132.758 262.271,132.200 262.019 C 131.432 261.671,129.290 261.444,129.633 261.747 M189.800 262.019 C 189.242 262.271,189.485 262.307,190.600 262.138 C 191.480 262.004,192.275 261.828,192.367 261.747 C 192.710 261.444,190.568 261.671,189.800 262.019 M201.600 262.000 C 202.150 262.176,202.960 262.326,203.400 262.332 L 204.200 262.344 203.400 262.000 C 202.960 261.811,202.150 261.662,201.600 261.668 L 200.600 261.680 201.600 262.000 M244.667 262.667 C 244.281 263.052,244.338 272.314,244.728 272.555 C 244.908 272.667,247.593 272.883,250.694 273.037 L 256.333 273.316 256.610 275.558 C 256.763 276.791,256.960 293.955,257.048 313.700 C 257.136 333.445,257.342 349.600,257.504 349.600 C 257.748 349.600,257.521 273.219,257.277 272.900 C 257.234 272.845,256.058 272.800,254.661 272.800 C 253.265 272.800,250.465 272.682,248.439 272.539 L 244.756 272.277 244.878 267.338 C 244.945 264.621,244.985 262.399,244.967 262.399 C 244.948 262.400,244.813 262.520,244.667 262.667 M281.324 264.600 C 281.326 265.920,281.401 266.412,281.490 265.693 C 281.579 264.974,281.577 263.894,281.486 263.293 C 281.395 262.692,281.322 263.280,281.324 264.600 M136.411 263.859 C 136.955 264.222,138.188 265.257,139.151 266.159 C 140.574 267.493,140.769 267.590,140.190 266.677 C 139.518 265.617,136.424 263.200,135.739 263.200 C 135.565 263.200,135.867 263.497,136.411 263.859 M183.997 264.543 C 183.006 265.271,181.701 266.613,181.097 267.525 C 179.526 269.899,179.741 270.106,181.381 267.798 C 182.141 266.729,183.527 265.342,184.461 264.714 C 186.454 263.376,186.657 263.197,186.167 263.210 C 185.965 263.215,184.989 263.815,183.997 264.543 M207.378 263.724 C 207.806 263.986,209.050 265.010,210.142 266.000 C 211.680 267.394,211.965 267.547,211.403 266.677 C 210.695 265.581,207.580 263.177,206.928 263.224 C 206.748 263.236,206.950 263.461,207.378 263.724 M111.607 265.055 C 110.302 266.154,108.010 269.784,108.004 270.764 C 108.002 271.074,108.553 270.222,109.228 268.870 C 109.904 267.518,111.115 265.869,111.919 265.206 C 112.724 264.543,113.265 264.000,113.122 264.000 C 112.979 264.000,112.297 264.475,111.607 265.055 M281.587 269.800 L 281.400 272.600 275.100 272.710 L 268.800 272.820 268.800 311.195 L 268.800 349.569 265.300 349.702 L 261.800 349.835 265.420 349.918 C 267.803 349.972,269.204 349.836,269.520 349.520 C 269.887 349.153,270.000 340.080,270.000 311.120 L 270.000 273.200 275.813 273.200 C 282.443 273.200,282.108 273.400,281.908 269.558 L 281.775 267.000 281.587 269.800 M141.064 268.400 C 142.821 270.673,143.369 274.355,143.385 284.000 L 143.400 293.400 139.886 293.600 C 136.505 293.792,136.419 293.821,137.614 294.346 C 139.191 295.039,143.506 294.788,144.034 293.972 C 144.445 293.337,144.270 276.362,143.826 273.800 C 143.497 271.902,142.126 268.990,141.234 268.294 C 140.697 267.876,140.671 267.892,141.064 268.400 M212.733 269.442 C 214.373 272.831,214.492 273.696,214.696 283.700 L 214.897 293.600 210.949 293.646 C 208.777 293.672,207.315 293.775,207.700 293.876 C 208.085 293.976,208.400 294.225,208.400 294.429 C 208.400 294.926,213.274 294.904,214.594 294.402 L 215.640 294.004 215.473 284.502 C 215.273 273.158,214.727 270.165,212.524 268.337 C 212.173 268.046,212.248 268.440,212.733 269.442 M121.159 272.114 C 118.575 273.852,118.276 275.145,118.311 284.438 C 118.352 295.343,119.033 297.677,122.734 299.584 C 124.359 300.421,124.142 299.706,122.427 298.571 C 119.614 296.709,119.182 295.061,118.925 285.200 C 118.717 277.248,119.405 273.606,121.273 272.762 C 121.563 272.631,122.203 272.316,122.695 272.062 C 125.252 270.741,129.108 272.010,130.971 274.786 L 132.169 276.572 132.121 285.086 C 132.095 289.769,132.202 293.600,132.359 293.600 C 133.166 293.600,132.591 276.616,131.719 274.711 C 130.111 271.197,124.555 269.830,121.159 272.114 M192.092 272.240 C 189.282 274.454,189.437 272.505,189.425 305.800 C 189.415 334.912,189.439 335.847,190.208 337.395 C 190.990 338.970,193.183 340.800,194.288 340.800 C 195.027 340.800,194.269 340.042,192.744 339.256 C 191.654 338.695,191.237 338.023,190.455 335.572 C 189.776 333.440,189.817 278.710,190.500 276.106 C 191.068 273.941,192.211 272.400,193.249 272.400 C 193.636 272.400,194.064 272.220,194.200 272.000 C 194.539 271.452,197.807 271.495,198.905 272.062 C 199.397 272.316,200.054 272.641,200.364 272.783 C 200.674 272.925,201.251 273.646,201.648 274.385 C 203.000 276.907,203.660 277.076,202.642 274.640 C 201.202 271.193,195.163 269.819,192.092 272.240 M107.473 272.153 C 107.323 272.545,107.211 273.166,107.225 273.533 C 107.242 273.975,107.381 273.874,107.637 273.234 C 107.849 272.703,107.961 272.082,107.885 271.854 C 107.809 271.627,107.624 271.761,107.473 272.153 M106.654 277.056 C 106.335 279.389,106.408 293.798,106.747 295.369 C 106.886 296.012,107.000 291.737,107.000 285.869 C 107.000 280.001,106.979 275.200,106.954 275.200 C 106.929 275.200,106.794 276.035,106.654 277.056 M177.857 276.700 C 177.517 278.758,177.578 333.419,177.923 335.359 C 178.075 336.216,178.200 323.031,178.200 306.059 C 178.200 289.087,178.179 275.200,178.152 275.200 C 178.126 275.200,177.993 275.875,177.857 276.700 M107.234 298.200 C 107.222 298.640,107.387 299.270,107.600 299.600 C 108.114 300.395,108.114 299.396,107.600 298.200 L 107.256 297.400 107.234 298.200 M125.000 300.400 C 125.440 300.589,126.160 300.744,126.600 300.744 L 127.400 300.744 126.600 300.400 C 126.160 300.211,125.440 300.056,125.000 300.056 L 124.200 300.056 125.000 300.400 M128.400 301.200 C 129.768 301.638,130.819 301.638,129.800 301.200 C 129.360 301.011,128.640 300.862,128.200 300.868 C 127.557 300.877,127.596 300.943,128.400 301.200 M131.600 302.000 C 131.930 302.213,132.470 302.388,132.800 302.388 C 133.333 302.388,133.333 302.345,132.800 302.000 C 132.470 301.787,131.930 301.612,131.600 301.612 C 131.067 301.612,131.067 301.655,131.600 302.000 M136.162 303.724 C 142.212 307.508,144.000 312.638,144.000 326.211 C 144.000 342.234,141.485 347.342,132.480 349.612 C 123.021 351.995,113.707 349.620,110.104 343.905 C 109.387 342.768,108.800 342.018,108.800 342.240 C 108.800 344.096,115.145 350.000,117.139 350.000 C 117.525 350.000,118.030 350.190,118.262 350.422 C 118.525 350.685,121.221 350.844,125.400 350.844 C 129.579 350.844,132.275 350.685,132.538 350.422 C 132.770 350.190,133.357 350.000,133.842 350.000 C 137.438 350.000,143.600 343.337,143.600 339.449 C 143.600 338.898,143.752 338.353,143.937 338.239 C 145.142 337.494,145.041 319.126,143.800 313.400 C 143.077 310.063,137.641 303.124,135.828 303.224 C 135.593 303.236,135.743 303.461,136.162 303.724 M110.029 304.600 C 111.215 306.393,115.825 310.000,116.930 310.000 C 117.273 310.000,117.664 310.180,117.800 310.400 C 117.936 310.620,118.566 310.800,119.200 310.800 C 119.834 310.800,120.464 310.980,120.600 311.200 C 120.736 311.420,121.229 311.600,121.695 311.600 C 122.162 311.600,123.096 311.768,123.772 311.973 C 124.447 312.178,125.759 312.565,126.686 312.832 C 128.475 313.348,129.280 314.051,130.958 316.556 C 132.207 318.421,132.344 317.842,131.157 315.712 C 129.680 313.060,128.930 312.559,125.000 311.597 C 122.837 311.068,121.823 310.794,118.324 309.792 C 115.985 309.123,112.349 306.839,110.529 304.897 C 109.963 304.294,109.738 304.160,110.029 304.600 M107.460 317.500 C 107.358 317.665,108.832 317.752,110.737 317.693 C 117.128 317.495,117.838 317.345,112.724 317.272 C 109.932 317.232,107.563 317.335,107.460 317.500 M118.088 324.400 C 118.022 336.409,118.499 338.516,121.635 340.081 C 123.345 340.934,123.840 340.971,123.200 340.200 C 122.926 339.870,122.473 339.600,122.193 339.600 C 119.996 339.600,118.825 335.919,118.756 328.800 C 118.726 325.610,118.571 321.740,118.413 320.200 C 118.194 318.062,118.117 319.054,118.088 324.400 M203.603 317.900 C 203.604 318.065,203.554 322.375,203.492 327.478 C 203.429 332.580,203.473 336.661,203.589 336.545 C 203.926 336.208,204.232 317.599,203.900 317.599 C 203.735 317.600,203.601 317.735,203.603 317.900 M132.197 327.400 C 132.198 332.240,132.322 335.390,132.470 334.400 C 132.813 332.121,132.804 323.696,132.457 320.800 C 132.312 319.590,132.195 322.560,132.197 327.400 M106.966 327.200 C 106.966 331.270,107.025 332.935,107.098 330.900 C 107.171 328.865,107.171 325.535,107.098 323.500 C 107.025 321.465,106.966 323.130,106.966 327.200 M215.202 328.275 C 215.198 342.793,212.517 347.616,203.217 349.841 C 198.476 350.975,189.480 350.355,185.925 348.648 L 184.600 348.011 185.800 349.004 C 186.460 349.549,187.304 349.997,187.676 349.998 C 188.048 349.999,188.447 350.153,188.563 350.340 C 189.218 351.400,203.582 351.400,204.237 350.340 C 204.353 350.153,204.799 350.000,205.229 350.000 C 205.659 350.000,206.323 349.841,206.705 349.647 C 207.087 349.452,207.897 349.061,208.504 348.777 C 211.061 347.581,214.800 342.461,214.800 340.156 C 214.800 339.656,214.951 339.154,215.137 339.039 C 215.901 338.567,216.536 323.491,215.846 322.200 C 215.237 321.061,215.205 321.368,215.202 328.275 M107.268 336.800 C 107.262 337.350,107.411 338.160,107.600 338.600 L 107.944 339.400 107.932 338.600 C 107.926 338.160,107.776 337.350,107.600 336.800 L 107.280 335.800 107.268 336.800 M131.600 337.103 C 131.600 337.342,131.111 338.137,130.514 338.869 C 129.621 339.964,129.592 340.059,130.351 339.404 C 131.429 338.475,132.165 337.231,131.832 336.899 C 131.705 336.771,131.600 336.863,131.600 337.103 M202.409 338.184 C 202.119 338.724,201.144 339.525,200.241 339.963 C 199.339 340.402,198.834 340.769,199.120 340.780 C 200.468 340.832,203.750 338.016,203.099 337.366 C 203.009 337.275,202.698 337.643,202.409 338.184 M178.456 338.600 C 178.456 339.040,178.611 339.760,178.800 340.200 L 179.144 341.000 179.144 340.200 C 179.144 339.760,178.989 339.040,178.800 338.600 L 178.456 337.800 178.456 338.600 M179.207 341.316 C 179.176 342.680,182.212 346.878,183.800 347.666 C 184.240 347.884,183.926 347.464,183.103 346.732 C 182.279 345.999,181.067 344.410,180.410 343.200 C 179.752 341.990,179.211 341.142,179.207 341.316 " stroke="none" fill="#949494" fill-rule="evenodd"></path></g></svg>