<svg id="svg" version="1.1" xmlns="http://www.w3.org/2000/svg" xmlns:xlink="http://www.w3.org/1999/xlink" width="400" height="400" viewBox="0, 0, 400,400"><g id="svgg"><path id="path0" d="M84.600 20.780 C 83.475 21.254,81.730 23.191,81.225 24.526 C 80.317 26.931,80.666 131.870,81.589 133.777 C 83.235 137.177,81.433 137.000,114.369 137.000 C 147.302 137.000,145.571 137.165,147.165 133.871 C 148.459 131.200,148.486 26.434,147.194 23.826 C 145.471 20.349,148.032 20.610,114.800 20.521 C 98.630 20.478,85.040 20.594,84.600 20.780 M169.606 20.803 C 167.441 21.322,165.720 23.478,165.412 26.057 C 165.271 27.236,165.211 50.700,165.279 78.200 L 165.402 128.200 166.322 130.800 C 167.971 135.458,172.019 143.293,175.415 148.400 C 187.000 165.820,197.573 171.898,224.000 176.333 C 232.074 177.688,247.889 178.473,264.219 178.330 C 281.218 178.181,280.422 178.031,284.256 182.085 C 288.547 186.622,292.927 199.002,294.592 211.300 C 294.827 213.034,294.943 213.199,295.925 213.193 C 299.066 213.173,315.298 212.385,317.100 212.164 C 319.511 211.870,319.521 211.837,318.823 206.877 C 318.616 205.405,318.241 202.670,317.991 200.800 C 314.237 172.762,303.552 158.064,286.000 156.793 C 283.470 156.610,280.320 156.279,279.000 156.059 C 277.680 155.838,275.250 155.451,273.600 155.200 C 271.950 154.949,269.610 154.589,268.400 154.400 C 267.190 154.211,264.850 153.851,263.200 153.600 C 261.550 153.349,259.210 152.982,258.000 152.786 C 253.101 151.990,250.458 151.578,247.642 151.170 C 243.170 150.522,241.980 150.010,240.733 148.200 C 239.324 146.156,235.604 137.953,234.202 133.800 C 231.861 126.868,232.000 130.527,232.000 75.907 L 232.000 25.453 231.159 23.715 C 229.563 20.419,231.451 20.608,199.400 20.535 C 183.780 20.499,170.373 20.619,169.606 20.803 M252.966 20.969 C 251.407 21.648,250.119 23.271,249.594 25.222 C 249.323 26.228,249.222 44.566,249.293 79.669 C 249.412 138.592,249.184 133.993,252.094 136.068 L 253.400 137.000 282.818 137.000 C 317.080 137.000,314.841 137.334,316.292 132.007 C 317.006 129.386,317.006 28.254,316.292 25.501 C 315.766 23.475,314.078 21.362,312.507 20.764 C 310.849 20.134,254.438 20.328,252.966 20.969 M84.282 150.457 C 80.342 155.622,79.512 162.381,82.112 168.130 L 83.346 170.861 100.373 170.576 C 119.923 170.249,139.017 171.035,146.400 172.469 C 154.109 173.967,160.260 181.832,162.449 192.990 C 163.870 200.231,164.000 202.606,164.003 221.365 C 164.006 242.234,163.908 241.429,166.657 243.241 C 167.762 243.970,169.550 243.995,220.609 243.997 L 273.418 244.000 274.899 242.779 C 277.237 240.852,277.256 240.648,277.122 218.854 L 277.000 199.108 275.301 197.601 C 273.406 195.919,273.626 195.987,265.600 194.618 C 256.264 193.025,252.566 192.554,241.800 191.592 C 239.160 191.356,235.740 190.997,234.200 190.794 C 232.660 190.591,229.600 190.233,227.400 189.998 C 205.815 187.691,192.585 184.251,179.400 177.516 C 173.572 174.539,171.307 172.125,167.187 164.498 C 161.595 154.147,159.061 151.317,154.200 149.991 C 153.138 149.702,141.284 149.475,118.966 149.318 L 85.331 149.081 84.282 150.457 M81.875 190.722 L 80.800 191.844 80.800 216.000 L 80.800 240.156 81.875 241.278 L 82.950 242.400 112.656 242.400 C 144.013 242.400,143.904 242.406,144.756 240.537 C 145.501 238.903,145.368 192.686,144.615 191.229 C 143.742 189.541,144.887 189.600,112.842 189.600 L 82.950 189.600 81.875 190.722 M303.947 221.904 C 298.137 229.161,294.200 234.522,294.200 235.175 C 294.200 236.605,305.868 248.140,306.704 247.536 C 308.796 246.024,319.199 236.610,319.191 236.235 C 319.183 235.817,308.107 220.368,307.022 219.261 C 306.582 218.812,306.071 219.252,303.947 221.904 M82.943 255.993 C 80.708 256.905,80.800 255.472,80.800 289.507 L 80.800 320.836 81.782 321.818 L 82.764 322.800 112.938 322.800 C 142.049 322.800,143.145 322.773,144.056 322.035 L 145.000 321.271 145.107 289.666 L 145.214 258.061 144.242 256.931 L 143.269 255.800 113.535 255.721 C 97.181 255.678,83.414 255.800,82.943 255.993 M168.147 256.057 C 166.342 256.463,164.055 258.408,162.901 260.519 C 162.252 261.704,162.200 263.859,162.200 289.400 L 162.200 317.000 163.170 318.693 C 163.703 319.624,164.873 320.884,165.770 321.493 L 167.400 322.600 239.266 322.600 L 311.131 322.600 312.846 321.394 C 316.440 318.869,316.200 321.164,316.200 289.334 L 316.200 261.269 315.000 259.572 C 313.426 257.346,312.073 256.383,309.943 255.972 C 307.526 255.505,170.237 255.588,168.147 256.057 M158.487 339.702 C 155.083 340.793,153.600 344.499,153.600 351.911 C 153.600 360.370,155.183 363.503,160.200 364.980 C 165.620 366.576,165.785 366.652,166.505 367.884 C 167.993 370.432,167.899 379.301,166.367 380.833 C 165.182 382.018,162.018 381.896,160.818 380.619 C 160.017 379.767,159.156 374.020,159.287 370.400 C 159.326 369.329,159.040 369.200,156.625 369.200 L 154.049 369.200 153.771 371.052 C 152.253 381.180,155.683 386.605,163.600 386.594 C 171.561 386.584,173.582 383.980,173.594 373.715 C 173.604 364.851,171.875 362.047,165.400 360.423 C 160.237 359.128,159.823 358.458,159.810 351.390 C 159.798 345.069,160.318 343.992,163.370 344.009 C 166.657 344.027,167.574 345.831,167.590 352.318 L 167.600 356.035 170.500 355.918 L 173.400 355.800 173.368 351.200 C 173.320 344.318,172.011 341.251,168.493 339.781 C 166.866 339.101,160.519 339.051,158.487 339.702 M197.203 339.837 C 192.542 341.859,192.000 344.235,192.000 362.657 C 192.000 383.156,192.822 385.795,199.460 386.625 C 208.713 387.781,211.979 384.797,212.055 375.118 C 212.102 369.136,212.092 369.117,208.958 369.278 L 206.600 369.400 206.363 374.000 C 206.233 376.530,205.994 379.072,205.833 379.649 C 205.191 381.940,200.993 382.570,199.322 380.627 L 198.400 379.555 198.400 362.759 L 198.400 345.962 199.458 344.981 C 200.880 343.664,203.148 343.650,204.658 344.948 C 205.733 345.873,205.764 346.023,205.928 350.948 L 206.097 356.000 209.048 356.000 L 212.000 356.000 212.000 351.260 C 212.000 344.580,210.803 341.642,207.437 340.059 C 205.170 338.994,199.434 338.869,197.203 339.837 M228.165 339.748 C 228.049 340.049,228.010 341.264,228.077 342.448 L 228.200 344.600 231.200 344.720 C 235.318 344.884,234.975 343.061,235.200 365.920 L 235.400 386.200 238.200 386.200 L 241.000 386.200 241.200 365.600 L 241.400 345.000 244.750 344.883 L 248.099 344.766 247.820 342.297 C 247.667 340.939,247.453 339.687,247.347 339.514 C 246.973 338.909,228.400 339.135,228.165 339.748 " stroke="none" fill="#fbe351" fill-rule="evenodd"></path><path id="path1" d="M0.000 200.000 L 0.000 400.000 200.000 400.000 L 400.000 400.000 400.000 200.000 L 400.000 0.000 200.000 0.000 L 0.000 0.000 0.000 200.000 M145.664 20.920 C 148.851 23.358,148.600 18.403,148.600 78.800 C 148.600 139.794,148.886 134.683,145.365 136.693 L 143.800 137.587 114.400 137.592 C 81.838 137.598,83.772 137.746,81.560 135.069 C 80.045 133.235,80.000 131.620,80.000 78.557 C 80.000 21.508,79.885 24.109,82.517 21.580 C 84.615 19.564,82.159 19.701,115.200 19.754 L 144.200 19.800 145.664 20.920 M313.872 20.707 C 314.571 21.206,315.561 22.286,316.072 23.107 L 317.000 24.600 317.000 78.800 L 317.000 133.000 316.080 134.480 C 314.006 137.814,316.279 137.600,283.007 137.600 L 253.509 137.600 251.954 136.726 C 248.536 134.805,248.800 139.671,248.801 78.574 C 248.803 24.657,248.804 24.599,249.633 23.239 C 251.904 19.513,250.581 19.650,283.600 19.730 L 312.600 19.800 313.872 20.707 M229.650 20.976 C 232.829 23.136,232.575 18.645,232.800 76.800 C 233.025 135.073,232.649 127.884,235.928 136.600 C 240.719 149.335,240.870 149.472,252.000 151.193 C 256.290 151.856,265.003 153.209,271.363 154.199 C 277.722 155.190,284.129 156.000,285.599 156.000 C 300.197 156.000,311.547 168.393,316.628 189.880 C 318.290 196.912,320.332 211.844,319.712 212.432 C 319.540 212.595,315.440 212.924,310.600 213.163 C 305.760 213.402,300.360 213.688,298.600 213.800 C 294.414 214.065,294.611 214.305,293.212 207.259 C 290.571 193.967,287.674 186.487,283.454 182.068 C 280.366 178.834,281.918 179.039,258.200 178.745 C 224.916 178.332,209.846 175.976,195.985 169.020 C 185.059 163.537,173.471 149.753,167.406 135.026 C 164.593 128.195,164.800 132.880,164.801 76.027 L 164.803 24.600 165.656 23.200 C 166.484 21.842,167.524 20.888,168.787 20.328 C 169.124 20.179,182.633 20.044,198.807 20.028 L 228.214 20.000 229.650 20.976 M139.000 148.802 C 159.254 149.329,159.491 149.431,165.509 160.200 C 172.165 172.113,173.660 173.907,179.400 176.870 C 191.499 183.115,206.050 187.044,224.260 188.981 C 227.527 189.328,231.460 189.790,233.000 190.006 C 234.540 190.223,239.670 190.764,244.400 191.208 C 253.815 192.094,256.515 192.427,264.000 193.631 C 278.878 196.024,277.800 193.961,277.800 220.031 L 277.800 240.262 276.654 241.765 C 274.115 245.093,279.591 244.797,220.660 244.799 C 161.660 244.800,166.516 245.072,164.346 241.651 L 163.200 239.843 163.193 220.622 C 163.186 201.523,163.007 198.257,161.653 192.400 C 159.510 183.136,155.291 176.677,149.708 174.110 C 145.271 172.071,127.412 171.021,101.665 171.285 C 81.147 171.497,83.009 171.795,81.249 168.009 C 80.342 166.060,80.220 165.276,80.211 161.341 L 80.200 156.883 82.200 152.941 L 84.200 149.000 92.000 148.787 C 105.495 148.418,124.486 148.424,139.000 148.802 M144.387 189.986 C 146.003 191.716,146.002 191.693,145.977 216.350 C 145.952 241.355,145.955 241.323,143.600 242.499 C 141.638 243.479,84.899 243.586,82.573 242.614 C 79.964 241.524,80.000 241.899,80.000 216.039 C 80.000 191.534,80.020 191.265,81.913 189.702 L 83.000 188.804 113.140 188.802 L 143.279 188.800 144.387 189.986 M313.418 226.824 C 316.928 231.678,319.800 235.947,319.800 236.312 C 319.800 236.926,306.695 248.800,306.017 248.800 C 305.482 248.800,293.200 235.702,293.208 235.141 C 293.217 234.586,305.318 218.835,306.142 218.306 C 306.394 218.144,306.698 218.009,306.818 218.006 C 306.937 218.003,309.907 221.971,313.418 226.824 M144.549 256.412 C 146.061 258.209,146.045 257.805,145.918 290.691 L 145.800 321.182 144.691 322.291 L 143.582 323.400 113.491 323.498 C 80.550 323.606,81.960 323.705,80.701 321.194 C 80.053 319.903,80.001 317.537,80.001 289.274 C 80.000 257.494,79.973 258.018,81.720 256.100 L 82.539 255.200 113.034 255.200 L 143.529 255.200 144.549 256.412 M311.713 255.760 C 313.314 256.457,314.807 257.872,316.047 259.867 L 317.000 261.400 317.000 289.429 L 317.000 317.458 315.916 319.097 C 312.712 323.937,318.832 323.579,239.173 323.590 C 163.150 323.601,167.223 323.728,164.537 321.269 C 161.443 318.436,161.600 320.139,161.600 289.412 C 161.600 257.262,161.453 258.179,167.000 255.756 C 168.848 254.948,309.858 254.953,311.713 255.760 M167.838 338.989 C 173.010 340.525,176.118 346.530,175.919 354.600 L 175.800 359.400 173.510 359.520 C 170.775 359.663,169.600 359.141,169.600 357.786 C 169.600 357.024,169.391 356.800,168.680 356.800 C 167.046 356.800,166.800 356.109,166.800 351.520 L 166.800 347.200 165.655 347.200 C 163.054 347.200,162.362 348.719,162.488 354.153 L 162.600 358.973 165.754 359.849 C 173.118 361.893,176.228 367.104,176.157 377.277 C 176.086 387.501,174.266 389.789,166.200 389.796 C 157.529 389.804,153.234 384.775,153.219 374.600 C 153.211 369.085,153.313 368.816,155.517 368.520 C 158.622 368.104,159.936 368.616,160.077 370.298 C 160.177 371.490,160.390 371.813,161.200 372.002 C 162.185 372.231,162.202 372.304,162.313 376.717 L 162.426 381.200 163.813 381.200 C 166.404 381.200,166.800 380.325,166.800 374.591 C 166.800 368.956,167.101 369.477,163.200 368.375 C 156.029 366.350,152.963 361.264,153.054 351.546 C 153.160 340.307,158.113 336.101,167.838 338.989 M208.035 339.647 C 211.972 341.831,214.294 346.658,214.655 353.407 C 214.974 359.370,214.865 359.600,211.725 359.600 C 209.052 359.600,208.000 359.087,208.000 357.786 C 208.000 357.024,207.791 356.800,207.080 356.800 C 205.446 356.800,205.200 356.109,205.200 351.520 L 205.200 347.200 204.182 347.200 C 200.969 347.200,200.744 348.510,200.885 366.400 L 201.000 381.000 202.420 381.119 C 204.965 381.333,205.378 380.408,205.531 374.144 L 205.663 368.770 209.131 368.885 L 212.600 369.000 212.722 370.462 C 212.818 371.610,213.045 371.975,213.780 372.159 C 216.091 372.739,215.083 384.744,212.473 387.719 C 210.171 390.341,201.681 390.918,198.271 388.683 C 192.119 384.652,191.821 383.532,191.680 363.873 C 191.533 343.567,191.832 341.956,196.145 339.725 C 199.376 338.054,205.096 338.017,208.035 339.647 M247.920 339.280 C 248.184 339.544,248.400 340.354,248.400 341.080 C 248.400 342.221,248.535 342.400,249.400 342.400 C 250.371 342.400,250.400 342.480,250.400 345.200 L 250.400 348.000 247.204 348.000 L 244.007 348.000 243.904 368.700 L 243.800 389.400 240.700 389.517 L 237.600 389.634 237.600 388.217 C 237.600 386.939,237.492 386.799,236.500 386.794 C 234.331 386.782,234.416 387.541,234.304 367.179 L 234.200 348.200 232.400 348.000 C 230.718 347.813,230.592 347.716,230.476 346.524 C 230.369 345.412,230.188 345.231,229.076 345.124 L 227.800 345.000 227.680 342.236 C 227.596 340.295,227.715 339.373,228.080 339.142 C 228.948 338.591,247.359 338.719,247.920 339.280 " stroke="none" fill="#040404" fill-rule="evenodd"></path><path id="path2" d="M100.100 19.900 C 107.965 19.960,120.835 19.960,128.700 19.900 C 136.565 19.839,130.130 19.790,114.400 19.790 C 98.670 19.790,92.235 19.839,100.100 19.900 M268.500 19.900 C 276.365 19.960,289.235 19.960,297.100 19.900 C 304.965 19.839,298.530 19.790,282.800 19.790 C 267.070 19.790,260.635 19.839,268.500 19.900 M83.362 20.862 L 82.600 21.724 83.800 20.983 C 85.434 19.974,85.409 20.000,84.729 20.000 C 84.396 20.000,83.781 20.388,83.362 20.862 M144.000 20.294 C 144.330 20.421,145.230 20.969,146.000 21.512 L 147.400 22.499 146.000 21.260 C 145.230 20.579,144.330 20.031,144.000 20.042 C 143.467 20.061,143.467 20.089,144.000 20.294 M168.787 20.328 C 167.843 20.746,166.661 21.716,166.017 22.600 C 165.697 23.040,166.057 22.837,166.817 22.149 C 167.578 21.461,168.740 20.710,169.400 20.481 C 170.060 20.251,170.330 20.062,170.000 20.060 C 169.670 20.058,169.124 20.179,168.787 20.328 M227.813 20.425 C 228.479 20.619,229.436 21.161,229.939 21.629 C 230.442 22.097,230.945 22.388,231.058 22.276 C 231.406 21.927,228.261 19.998,227.407 20.036 C 226.851 20.061,226.978 20.182,227.813 20.425 M251.733 20.892 C 251.043 21.383,250.258 22.148,249.990 22.592 C 249.692 23.088,250.024 22.918,250.852 22.153 C 251.593 21.467,252.560 20.707,253.000 20.465 C 253.440 20.223,253.617 20.019,253.394 20.012 C 253.171 20.005,252.424 20.401,251.733 20.892 M313.622 21.016 C 314.379 21.575,315.403 22.700,315.898 23.516 C 316.392 24.332,316.797 24.841,316.798 24.647 C 316.805 23.466,313.644 20.000,312.561 20.000 C 312.387 20.000,312.864 20.457,313.622 21.016 M81.414 22.635 C 81.041 23.204,80.805 23.738,80.889 23.822 C 80.973 23.907,81.358 23.441,81.744 22.788 C 82.606 21.328,82.348 21.209,81.414 22.635 M80.250 25.650 C 79.923 27.285,80.017 130.640,80.347 132.178 C 80.486 132.825,80.600 108.840,80.600 78.878 C 80.600 48.915,80.578 24.400,80.550 24.400 C 80.523 24.400,80.388 24.963,80.250 25.650 M148.200 78.800 C 148.200 108.746,148.317 132.832,148.460 132.324 C 148.603 131.816,148.720 107.730,148.720 78.800 C 148.720 49.870,148.603 25.784,148.460 25.276 C 148.317 24.768,148.200 48.854,148.200 78.800 M232.301 65.675 C 232.357 88.404,232.450 111.500,232.508 117.000 C 232.567 122.500,232.638 104.320,232.667 76.600 C 232.696 48.880,232.603 25.784,232.460 25.275 C 232.317 24.767,232.246 42.947,232.301 65.675 M316.994 78.800 C 316.994 108.170,317.042 120.185,317.100 105.500 C 317.158 90.815,317.158 66.785,317.100 52.100 C 317.042 37.415,316.994 49.430,316.994 78.800 M164.880 127.000 C 164.880 127.440,165.024 128.250,165.200 128.800 C 165.454 129.592,165.520 129.633,165.520 129.000 C 165.520 128.560,165.376 127.750,165.200 127.200 C 164.946 126.408,164.880 126.367,164.880 127.000 M232.806 128.233 C 232.809 128.655,232.995 129.270,233.218 129.600 C 233.515 130.038,233.552 129.876,233.356 129.000 C 233.027 127.529,232.798 127.210,232.806 128.233 M315.823 134.208 C 315.037 135.668,313.735 136.702,312.035 137.218 C 311.295 137.442,311.215 137.541,311.753 137.566 C 313.327 137.638,317.519 133.786,316.728 132.995 C 316.638 132.905,316.231 133.451,315.823 134.208 M80.800 133.783 C 80.800 133.943,81.160 134.531,81.600 135.091 C 82.040 135.650,82.400 135.977,82.400 135.817 C 82.400 135.657,82.040 135.069,81.600 134.509 C 81.160 133.950,80.800 133.623,80.800 133.783 M250.056 135.141 C 250.310 135.548,250.897 136.111,251.359 136.391 C 251.948 136.747,251.848 136.525,251.025 135.650 C 249.688 134.227,249.386 134.069,250.056 135.141 M168.578 137.808 C 168.901 138.582,169.462 139.617,169.824 140.108 C 170.567 141.114,170.521 140.965,169.261 138.300 C 168.219 136.097,167.709 135.730,168.578 137.808 M252.800 137.182 C 253.130 137.405,253.745 137.591,254.167 137.594 C 255.190 137.602,254.871 137.373,253.400 137.044 C 252.524 136.848,252.362 136.885,252.800 137.182 M237.600 141.284 C 237.600 141.716,238.815 144.400,239.011 144.400 C 239.121 144.400,238.933 143.734,238.593 142.921 C 237.993 141.486,237.600 140.838,237.600 141.284 M171.800 144.000 C 172.141 144.660,172.511 145.200,172.621 145.200 C 172.731 145.200,172.541 144.660,172.200 144.000 C 171.859 143.340,171.489 142.800,171.379 142.800 C 171.269 142.800,171.459 143.340,171.800 144.000 M239.215 145.000 C 239.217 145.220,239.586 145.850,240.036 146.400 C 240.579 147.064,240.715 147.131,240.440 146.600 C 239.766 145.295,239.212 144.572,239.215 145.000 M173.467 146.806 C 173.859 147.470,174.598 148.505,175.110 149.106 C 175.621 149.708,175.375 149.165,174.563 147.900 C 173.024 145.503,172.228 144.707,173.467 146.806 M241.396 148.460 C 242.119 149.651,243.965 150.567,245.068 150.282 C 245.642 150.133,245.601 150.083,244.874 150.046 C 243.697 149.987,242.438 149.316,241.493 148.241 C 240.762 147.410,240.760 147.413,241.396 148.460 M107.126 148.700 C 111.376 148.764,118.216 148.764,122.326 148.699 C 126.437 148.634,122.960 148.581,114.600 148.581 C 106.240 148.582,102.877 148.635,107.126 148.700 M141.317 149.097 C 142.811 149.174,145.151 149.174,146.517 149.096 C 147.882 149.018,146.660 148.955,143.800 148.955 C 140.940 148.956,139.822 149.020,141.317 149.097 M150.300 149.489 C 151.015 149.578,152.185 149.578,152.900 149.489 C 153.615 149.401,153.030 149.328,151.600 149.328 C 150.170 149.328,149.585 149.401,150.300 149.489 M83.000 151.200 C 82.659 151.860,82.469 152.400,82.579 152.400 C 82.689 152.400,83.059 151.860,83.400 151.200 C 83.741 150.540,83.931 150.000,83.821 150.000 C 83.711 150.000,83.341 150.540,83.000 151.200 M158.000 151.063 C 158.550 151.447,159.798 152.581,160.773 153.581 C 162.153 154.997,162.346 155.112,161.645 154.099 C 160.786 152.859,158.889 151.237,157.600 150.640 C 157.270 150.488,157.450 150.678,158.000 151.063 M247.600 150.780 C 248.599 151.120,251.082 151.332,250.767 151.051 C 250.675 150.969,249.700 150.799,248.600 150.672 C 247.251 150.516,246.926 150.551,247.600 150.780 M252.800 151.580 C 253.799 151.920,256.282 152.132,255.967 151.851 C 255.875 151.769,254.900 151.599,253.800 151.472 C 252.451 151.316,252.126 151.351,252.800 151.580 M178.245 153.610 C 179.039 154.715,181.334 157.292,183.344 159.336 C 185.355 161.380,185.993 161.961,184.761 160.626 C 180.861 156.399,179.689 155.044,178.426 153.300 C 177.749 152.365,177.106 151.600,176.998 151.600 C 176.890 151.600,177.451 152.504,178.245 153.610 M257.800 152.400 C 258.460 152.568,259.450 152.705,260.000 152.705 C 260.892 152.705,260.870 152.672,259.800 152.400 C 259.140 152.232,258.150 152.095,257.600 152.095 C 256.708 152.095,256.730 152.128,257.800 152.400 M262.800 153.180 C 263.799 153.520,266.282 153.732,265.967 153.451 C 265.875 153.369,264.900 153.199,263.800 153.072 C 262.451 152.916,262.126 152.951,262.800 153.180 M268.000 153.980 C 268.999 154.320,271.482 154.532,271.167 154.251 C 271.075 154.169,270.100 153.999,269.000 153.872 C 267.651 153.716,267.326 153.751,268.000 153.980 M273.200 154.780 C 274.199 155.120,276.682 155.332,276.367 155.051 C 276.275 154.969,275.300 154.799,274.200 154.672 C 272.851 154.516,272.526 154.551,273.200 154.780 M278.400 155.580 C 279.399 155.920,281.882 156.132,281.567 155.851 C 281.475 155.769,280.500 155.599,279.400 155.472 C 278.051 155.316,277.726 155.351,278.400 155.580 M282.833 156.146 C 282.925 156.226,284.800 156.379,287.000 156.485 C 289.200 156.592,290.460 156.547,289.800 156.387 C 288.578 156.089,282.530 155.880,282.833 156.146 M80.256 157.284 C 80.121 157.788,80.027 158.560,80.046 159.000 C 80.065 159.440,80.245 159.098,80.446 158.240 C 80.836 156.578,80.670 155.740,80.256 157.284 M165.200 160.200 C 165.926 161.520,166.702 162.780,166.925 163.000 C 167.148 163.220,166.741 162.320,166.021 161.000 C 165.301 159.680,164.525 158.420,164.296 158.200 C 164.067 157.980,164.474 158.880,165.200 160.200 M297.600 159.321 C 297.600 159.412,298.635 160.151,299.900 160.963 C 301.165 161.775,301.708 162.021,301.106 161.510 C 299.918 160.500,297.600 159.053,297.600 159.321 M303.773 164.200 C 304.543 164.970,305.305 165.600,305.465 165.600 C 305.626 165.600,305.146 164.970,304.400 164.200 C 303.654 163.430,302.892 162.800,302.708 162.800 C 302.524 162.800,303.003 163.430,303.773 164.200 M187.996 163.742 C 188.690 164.643,194.000 168.303,194.000 167.880 C 194.000 167.788,192.965 167.035,191.700 166.206 C 190.435 165.377,188.955 164.317,188.412 163.850 C 187.653 163.196,187.556 163.172,187.996 163.742 M80.068 164.000 C 80.088 165.039,80.718 166.746,80.732 165.800 C 80.738 165.360,80.589 164.640,80.400 164.200 C 80.189 163.710,80.061 163.632,80.068 164.000 M168.015 165.400 C 168.017 165.620,168.386 166.250,168.836 166.800 C 169.379 167.464,169.515 167.531,169.240 167.000 C 168.566 165.695,168.012 164.972,168.015 165.400 M306.391 167.188 C 306.857 167.841,307.442 168.502,307.691 168.656 C 307.941 168.811,307.641 168.276,307.025 167.468 C 305.688 165.715,305.184 165.492,306.391 167.188 M81.378 168.208 C 81.701 168.982,82.262 170.017,82.624 170.508 C 83.367 171.514,83.321 171.365,82.061 168.700 C 81.019 166.497,80.509 166.130,81.378 168.208 M195.011 168.534 C 195.896 169.132,197.200 169.658,197.200 169.417 C 197.200 169.237,194.798 168.000,194.450 168.000 C 194.324 168.000,194.577 168.240,195.011 168.534 M104.300 171.099 C 107.435 171.167,112.565 171.167,115.700 171.099 C 118.835 171.032,116.270 170.976,110.000 170.976 C 103.730 170.976,101.165 171.032,104.300 171.099 M85.300 171.494 C 86.345 171.576,88.055 171.576,89.100 171.494 C 90.145 171.412,89.290 171.344,87.200 171.344 C 85.110 171.344,84.255 171.412,85.300 171.494 M125.233 171.346 C 125.325 171.427,127.920 171.577,131.000 171.681 C 134.199 171.789,135.828 171.739,134.800 171.565 C 132.990 171.258,124.922 171.073,125.233 171.346 M138.433 172.146 C 138.525 172.226,140.040 172.392,141.800 172.513 C 144.098 172.671,144.549 172.637,143.400 172.390 C 141.810 172.048,138.115 171.867,138.433 172.146 M146.433 172.944 C 146.525 173.023,147.140 173.208,147.800 173.356 C 148.676 173.552,148.838 173.515,148.400 173.218 C 147.860 172.853,146.032 172.598,146.433 172.944 M209.400 174.000 C 209.840 174.189,210.470 174.344,210.800 174.344 C 211.178 174.344,211.104 174.217,210.600 174.000 C 210.160 173.811,209.530 173.656,209.200 173.656 C 208.822 173.656,208.896 173.783,209.400 174.000 M151.611 175.060 C 152.155 175.424,153.151 176.189,153.823 176.760 C 154.496 177.332,154.254 177.035,153.285 176.100 C 152.316 175.165,151.320 174.400,151.072 174.400 C 150.825 174.400,151.067 174.697,151.611 175.060 M212.400 174.800 C 213.768 175.238,214.819 175.238,213.800 174.800 C 213.360 174.611,212.640 174.462,212.200 174.468 C 211.557 174.477,211.596 174.543,212.400 174.800 M216.200 175.600 C 217.892 176.031,219.344 176.031,218.000 175.600 C 217.450 175.424,216.550 175.283,216.000 175.287 C 215.102 175.294,215.122 175.326,216.200 175.600 M220.600 176.400 C 222.292 176.831,223.744 176.831,222.400 176.400 C 221.850 176.224,220.950 176.083,220.400 176.087 C 219.502 176.094,219.522 176.126,220.600 176.400 M225.600 177.220 C 228.014 177.650,229.906 177.613,227.800 177.177 C 226.920 176.995,225.660 176.858,225.000 176.873 C 224.100 176.893,224.250 176.980,225.600 177.220 M233.400 178.015 C 234.720 178.179,236.520 178.307,237.400 178.300 C 238.774 178.289,238.689 178.244,236.800 177.983 C 235.590 177.816,233.790 177.688,232.800 177.698 C 231.156 177.716,231.208 177.743,233.400 178.015 M155.602 178.633 C 155.603 178.835,156.068 179.540,156.635 180.200 L 157.666 181.400 156.763 180.000 C 155.604 178.204,155.600 178.199,155.602 178.633 M246.600 178.681 C 255.945 178.944,279.118 178.978,278.487 178.728 C 278.109 178.579,269.880 178.482,260.200 178.512 C 250.520 178.543,244.400 178.619,246.600 178.681 M283.464 182.023 C 284.584 183.246,285.797 184.821,286.160 185.523 C 286.523 186.225,286.917 186.800,287.036 186.800 C 287.623 186.800,285.241 183.425,283.456 181.728 L 281.427 179.800 283.464 182.023 M158.278 182.995 C 158.644 183.762,159.014 184.319,159.101 184.232 C 159.284 184.049,158.070 181.600,157.796 181.600 C 157.695 181.600,157.912 182.228,158.278 182.995 M200.600 185.200 C 201.040 185.389,201.760 185.538,202.200 185.532 C 202.843 185.523,202.804 185.457,202.000 185.200 C 200.632 184.762,199.581 184.762,200.600 185.200 M315.256 185.600 C 315.256 185.930,315.411 186.560,315.600 187.000 C 315.817 187.504,315.944 187.578,315.944 187.200 C 315.944 186.870,315.789 186.240,315.600 185.800 C 315.383 185.296,315.256 185.222,315.256 185.600 M203.800 185.981 C 204.568 186.329,206.710 186.556,206.367 186.253 C 206.275 186.172,205.480 185.996,204.600 185.862 C 203.485 185.693,203.242 185.729,203.800 185.981 M207.800 186.800 C 208.240 186.989,208.960 187.138,209.400 187.132 C 210.043 187.123,210.004 187.057,209.200 186.800 C 207.832 186.362,206.781 186.362,207.800 186.800 M212.000 187.600 C 212.550 187.776,213.450 187.917,214.000 187.913 C 214.898 187.906,214.878 187.874,213.800 187.600 C 212.108 187.169,210.656 187.169,212.000 187.600 M287.234 187.400 C 287.234 187.620,287.578 188.430,288.000 189.200 C 288.422 189.970,288.766 190.420,288.766 190.200 C 288.766 189.980,288.422 189.170,288.000 188.400 C 287.578 187.630,287.234 187.180,287.234 187.400 M216.800 188.387 C 217.791 188.717,220.687 188.935,220.367 188.654 C 220.275 188.574,219.210 188.406,218.000 188.281 C 216.580 188.134,216.154 188.171,216.800 188.387 M316.068 188.600 C 316.062 189.040,316.211 189.760,316.400 190.200 C 316.838 191.219,316.838 190.168,316.400 188.800 C 316.143 187.996,316.077 187.957,316.068 188.600 M82.662 189.100 C 82.560 189.265,96.077 189.353,112.701 189.295 C 139.596 189.202,143.039 189.259,143.963 189.819 L 145.000 190.447 144.056 189.624 C 143.081 188.774,83.179 188.263,82.662 189.100 M223.200 189.199 C 225.050 189.550,228.264 189.719,227.967 189.449 C 227.875 189.365,226.360 189.198,224.600 189.077 C 222.194 188.912,221.847 188.942,223.200 189.199 M80.909 190.682 C 80.148 191.844,79.569 237.963,80.291 239.918 C 80.461 240.378,80.550 229.938,80.488 216.717 C 80.381 193.761,80.410 192.611,81.138 191.140 C 82.025 189.346,81.922 189.137,80.909 190.682 M230.600 190.023 C 231.480 190.205,232.650 190.344,233.200 190.331 C 233.841 190.316,233.626 190.189,232.600 189.977 C 231.720 189.795,230.550 189.656,230.000 189.669 C 229.359 189.684,229.574 189.811,230.600 190.023 M237.400 190.810 C 238.990 191.152,242.685 191.333,242.367 191.054 C 242.275 190.974,240.760 190.808,239.000 190.687 C 236.702 190.529,236.251 190.563,237.400 190.810 M245.600 191.599 C 247.450 191.950,250.664 192.119,250.367 191.849 C 250.275 191.765,248.760 191.598,247.000 191.477 C 244.594 191.312,244.247 191.342,245.600 191.599 M316.868 192.200 C 316.862 192.640,317.011 193.360,317.200 193.800 C 317.638 194.819,317.638 193.768,317.200 192.400 C 316.943 191.596,316.877 191.557,316.868 192.200 M161.668 192.400 C 161.688 193.439,162.318 195.146,162.332 194.200 C 162.338 193.760,162.189 193.040,162.000 192.600 C 161.789 192.110,161.661 192.032,161.668 192.400 M253.400 192.380 C 254.634 192.715,257.464 192.918,257.167 192.650 C 257.075 192.568,255.920 192.400,254.600 192.277 C 253.022 192.130,252.611 192.165,253.400 192.380 M145.787 216.000 C 145.787 228.870,145.838 234.135,145.900 227.700 C 145.962 221.265,145.962 210.735,145.900 204.300 C 145.838 197.865,145.787 203.130,145.787 216.000 M259.400 193.200 C 260.060 193.368,261.050 193.505,261.600 193.505 C 262.492 193.505,262.470 193.472,261.400 193.200 C 260.740 193.032,259.750 192.895,259.200 192.895 C 258.308 192.895,258.330 192.928,259.400 193.200 M264.400 194.000 C 264.950 194.176,265.850 194.317,266.400 194.313 C 267.298 194.306,267.278 194.274,266.200 194.000 C 264.508 193.569,263.056 193.569,264.400 194.000 M269.200 194.800 C 269.750 194.976,270.560 195.120,271.000 195.120 C 271.633 195.120,271.592 195.054,270.800 194.800 C 270.250 194.624,269.440 194.480,269.000 194.480 C 268.367 194.480,268.408 194.546,269.200 194.800 M290.644 196.200 C 290.973 197.671,291.202 197.990,291.194 196.967 C 291.191 196.545,291.005 195.930,290.782 195.600 C 290.485 195.162,290.448 195.324,290.644 196.200 M317.640 196.233 C 317.662 196.875,317.833 197.850,318.020 198.400 C 318.249 199.074,318.284 198.749,318.128 197.400 C 317.869 195.150,317.579 194.459,317.640 196.233 M162.677 197.800 C 162.800 199.120,162.968 200.275,163.050 200.367 C 163.318 200.664,163.115 197.834,162.780 196.600 C 162.565 195.811,162.530 196.222,162.677 197.800 M276.482 198.373 C 276.980 199.238,277.455 199.878,277.539 199.794 C 277.712 199.621,276.031 196.800,275.755 196.800 C 275.657 196.800,275.984 197.508,276.482 198.373 M291.256 198.400 C 291.256 198.730,291.411 199.360,291.600 199.800 C 291.817 200.304,291.944 200.378,291.944 200.000 C 291.944 199.670,291.789 199.040,291.600 198.600 C 291.383 198.096,291.256 198.022,291.256 198.400 M318.473 201.400 C 318.458 202.060,318.595 203.320,318.777 204.200 C 319.213 206.306,319.250 204.414,318.820 202.000 C 318.580 200.650,318.493 200.500,318.473 201.400 M277.785 220.000 C 277.785 230.670,277.837 235.035,277.900 229.700 C 277.963 224.365,277.963 215.635,277.900 210.300 C 277.837 204.965,277.785 209.330,277.785 220.000 M292.068 201.600 C 292.088 202.639,292.718 204.346,292.732 203.400 C 292.738 202.960,292.589 202.240,292.400 201.800 C 292.189 201.310,292.061 201.232,292.068 201.600 M163.293 220.800 C 163.249 231.250,163.344 240.008,163.506 240.263 C 163.772 240.682,163.759 219.880,163.485 207.000 C 163.424 204.140,163.338 210.350,163.293 220.800 M293.062 206.200 C 293.196 207.080,293.372 207.875,293.453 207.967 C 293.756 208.310,293.529 206.168,293.181 205.400 C 292.929 204.842,292.893 205.085,293.062 206.200 M319.404 209.318 C 319.560 211.829,319.506 212.063,318.687 212.392 L 317.800 212.749 318.713 212.775 C 319.927 212.808,320.060 212.280,319.612 209.200 L 319.235 206.600 319.404 209.318 M293.687 209.400 C 293.691 209.840,293.832 210.740,294.000 211.400 C 294.274 212.478,294.306 212.498,294.313 211.600 C 294.317 211.050,294.176 210.150,294.000 209.600 C 293.749 208.816,293.681 208.773,293.687 209.400 M308.900 213.094 C 309.945 213.176,311.655 213.176,312.700 213.094 C 313.745 213.012,312.890 212.944,310.800 212.944 C 308.710 212.944,307.855 213.012,308.900 213.094 M302.691 213.489 C 303.401 213.577,304.661 213.579,305.491 213.492 C 306.321 213.405,305.740 213.333,304.200 213.331 C 302.660 213.329,301.981 213.400,302.691 213.489 M295.905 213.883 C 296.402 213.979,297.122 213.975,297.505 213.875 C 297.887 213.775,297.480 213.696,296.600 213.701 C 295.720 213.705,295.407 213.787,295.905 213.883 M307.172 218.900 C 309.385 221.496,309.559 221.642,308.366 219.900 C 307.650 218.855,306.916 218.000,306.735 218.000 C 306.554 218.000,306.750 218.405,307.172 218.900 M304.799 219.700 C 304.210 220.504,304.113 220.784,304.545 220.433 C 305.201 219.900,306.193 218.400,305.889 218.400 C 305.813 218.400,305.322 218.985,304.799 219.700 M302.349 222.900 C 301.624 223.835,300.394 225.400,299.616 226.377 C 298.837 227.355,298.398 228.036,298.639 227.891 C 299.162 227.578,304.137 221.200,303.859 221.200 C 303.754 221.200,303.074 221.965,302.349 222.900 M310.786 223.780 C 311.459 224.758,312.201 225.677,312.434 225.821 C 312.668 225.965,312.199 225.165,311.392 224.042 C 309.590 221.534,309.093 221.319,310.786 223.780 M313.943 228.118 C 314.640 229.131,315.422 230.090,315.680 230.250 C 315.939 230.409,315.535 229.684,314.784 228.637 C 313.005 226.160,312.294 225.721,313.943 228.118 M295.637 231.500 C 294.305 233.205,293.220 234.870,293.225 235.200 C 293.244 236.389,305.883 249.058,306.471 248.476 C 306.909 248.043,306.894 247.993,306.381 248.188 C 305.713 248.442,293.600 236.105,293.600 235.170 C 293.600 234.895,294.691 233.260,296.026 231.535 C 297.360 229.811,298.363 228.400,298.255 228.400 C 298.147 228.400,296.969 229.795,295.637 231.500 M317.800 233.421 C 320.017 236.527,320.039 236.424,316.465 239.433 C 314.919 240.735,313.641 241.958,313.627 242.152 C 313.595 242.570,319.177 237.615,319.736 236.729 C 320.084 236.177,316.814 230.800,316.130 230.800 C 316.020 230.800,316.771 231.979,317.800 233.421 M144.920 240.900 C 143.806 242.641,144.663 242.589,113.239 242.806 L 83.400 243.013 112.713 243.106 C 144.117 243.207,144.126 243.206,145.182 241.234 C 145.661 240.339,145.451 240.071,144.920 240.900 M81.544 241.976 C 82.064 242.429,82.679 242.800,82.911 242.800 C 83.403 242.800,83.379 242.780,81.800 241.855 L 80.600 241.153 81.544 241.976 M275.375 242.900 L 274.200 244.200 275.500 243.025 C 276.215 242.379,276.800 241.794,276.800 241.725 C 276.800 241.416,276.470 241.688,275.375 242.900 M165.118 242.879 C 166.721 244.881,164.382 244.800,220.660 244.794 C 249.447 244.791,273.208 244.656,273.462 244.494 C 273.716 244.332,249.956 244.200,220.662 244.200 L 167.400 244.200 166.000 243.216 C 165.230 242.674,164.833 242.523,165.118 242.879 M311.591 243.711 C 310.817 244.420,309.493 245.596,308.649 246.325 C 307.806 247.053,307.182 247.716,307.263 247.797 C 307.345 247.878,308.758 246.705,310.405 245.190 C 312.052 243.674,313.310 242.432,313.200 242.428 C 313.090 242.425,312.366 243.002,311.591 243.711 M81.570 256.300 L 80.600 257.400 81.800 256.400 C 82.460 255.850,83.075 255.355,83.167 255.300 C 83.258 255.245,83.155 255.200,82.936 255.200 C 82.718 255.200,82.103 255.695,81.570 256.300 M143.365 255.725 C 143.761 256.014,144.441 256.689,144.877 257.225 C 145.313 257.761,145.537 257.930,145.375 257.600 C 144.914 256.659,143.503 255.200,143.054 255.200 C 142.830 255.200,142.970 255.436,143.365 255.725 M167.400 255.600 C 166.896 255.817,166.822 255.944,167.200 255.944 C 167.530 255.944,168.160 255.789,168.600 255.600 C 169.104 255.383,169.178 255.256,168.800 255.256 C 168.470 255.256,167.840 255.411,167.400 255.600 M310.732 255.794 C 311.685 256.091,312.852 256.664,313.326 257.067 C 314.165 257.782,314.172 257.781,313.593 257.038 C 312.926 256.181,310.794 255.186,309.713 255.227 C 309.321 255.241,309.780 255.497,310.732 255.794 M163.629 258.291 C 162.953 259.111,162.400 259.951,162.400 260.158 C 162.400 260.364,162.455 260.458,162.523 260.367 C 162.590 260.275,163.236 259.435,163.956 258.500 C 165.571 256.405,165.317 256.243,163.629 258.291 M80.243 258.233 C 79.908 259.106,79.991 319.635,80.328 320.485 C 80.478 320.862,80.600 306.867,80.600 289.385 C 80.600 271.903,80.574 257.600,80.543 257.600 C 80.511 257.600,80.376 257.885,80.243 258.233 M314.402 257.738 C 314.401 257.924,314.778 258.607,315.239 259.255 C 315.700 259.903,316.225 260.921,316.405 261.517 C 316.651 262.335,316.739 262.404,316.764 261.800 C 316.782 261.360,316.258 260.190,315.600 259.200 C 314.942 258.210,314.403 257.552,314.402 257.738 M145.790 289.400 C 145.790 306.340,145.840 313.212,145.900 304.670 C 145.960 296.129,145.960 282.269,145.900 273.870 C 145.840 265.472,145.790 272.460,145.790 289.400 M161.849 261.415 C 161.712 261.773,161.615 262.366,161.634 262.733 C 161.653 263.100,161.827 262.869,162.021 262.220 C 162.398 260.958,162.265 260.333,161.849 261.415 M316.989 289.400 C 316.989 303.920,317.039 309.802,317.100 302.471 C 317.161 295.140,317.161 283.260,317.100 276.071 C 317.039 268.882,316.989 274.880,316.989 289.400 M161.606 316.233 C 161.609 316.655,161.795 317.270,162.018 317.600 C 162.315 318.038,162.352 317.876,162.156 317.000 C 161.827 315.529,161.598 315.210,161.606 316.233 M316.292 317.501 C 315.952 319.126,313.076 322.063,311.196 322.707 C 309.976 323.125,309.951 323.157,311.000 322.961 C 313.376 322.519,317.071 318.619,316.717 316.928 C 316.616 316.446,316.473 316.639,316.292 317.501 M163.600 320.348 C 163.600 320.906,166.502 322.730,167.800 322.988 C 168.718 323.170,168.603 323.059,167.310 322.513 C 166.380 322.121,165.165 321.396,164.610 320.903 C 164.054 320.409,163.600 320.160,163.600 320.348 M144.326 322.088 C 143.735 322.699,143.388 323.200,143.556 323.200 C 143.935 323.200,145.799 321.245,145.568 321.089 C 145.476 321.026,144.916 321.476,144.326 322.088 M98.130 323.500 C 106.451 323.560,119.951 323.560,128.130 323.500 C 136.308 323.439,129.500 323.390,113.000 323.390 C 96.500 323.390,89.808 323.439,98.130 323.500 M204.100 323.500 C 223.405 323.557,254.995 323.557,274.300 323.500 C 293.605 323.443,277.810 323.396,239.200 323.396 C 200.590 323.396,184.795 323.443,204.100 323.500 M160.900 338.676 C 161.285 338.776,161.915 338.776,162.300 338.676 C 162.685 338.575,162.370 338.493,161.600 338.493 C 160.830 338.493,160.515 338.575,160.900 338.676 M233.100 339.099 C 235.795 339.168,240.205 339.168,242.900 339.099 C 245.595 339.030,243.390 338.973,238.000 338.973 C 232.610 338.973,230.405 339.030,233.100 339.099 M156.744 340.024 L 155.800 340.847 157.000 340.145 C 158.579 339.220,158.603 339.200,158.111 339.200 C 157.879 339.200,157.264 339.571,156.744 340.024 M227.770 342.000 C 227.800 344.990,227.804 345.000,228.905 345.049 C 229.882 345.092,229.896 345.077,229.022 344.924 C 228.096 344.761,228.025 344.569,227.887 341.875 L 227.739 339.000 227.770 342.000 M248.152 341.000 C 248.192 342.337,248.348 342.621,249.100 342.728 C 249.918 342.844,250.000 343.072,250.000 345.228 L 250.000 347.600 246.880 347.600 C 242.424 347.600,242.800 345.640,242.800 368.880 L 242.800 389.200 240.425 389.200 L 238.051 389.200 237.889 387.900 C 237.732 386.634,237.726 386.640,237.664 388.117 L 237.600 389.634 240.700 389.517 L 243.800 389.400 243.904 368.700 L 244.007 348.000 247.204 348.000 L 250.400 348.000 250.400 345.200 C 250.400 342.498,250.366 342.400,249.424 342.400 C 248.594 342.400,248.423 342.176,248.276 340.900 L 248.105 339.400 248.152 341.000 M209.594 341.003 C 211.187 342.921,211.321 343.045,210.886 342.196 C 210.659 341.753,210.052 341.034,209.537 340.598 C 208.633 339.834,208.635 339.848,209.594 341.003 M172.000 342.138 C 172.000 342.291,172.409 343.087,172.909 343.908 C 174.942 347.244,175.600 350.014,175.600 355.231 L 175.600 358.800 173.200 358.800 C 171.091 358.800,170.800 358.706,170.800 358.024 C 170.800 357.115,170.328 356.766,168.635 356.421 L 167.400 356.169 167.200 351.585 L 167.000 347.000 165.387 346.881 C 162.488 346.668,161.890 347.794,161.841 353.568 C 161.818 356.286,161.973 358.533,162.200 358.761 C 162.467 359.029,162.559 357.529,162.478 354.258 C 162.341 348.730,163.030 347.200,165.655 347.200 L 166.800 347.200 166.800 351.520 C 166.800 356.109,167.046 356.800,168.680 356.800 C 169.391 356.800,169.600 357.024,169.600 357.786 C 169.600 359.141,170.775 359.663,173.510 359.520 L 175.800 359.400 175.913 354.442 C 176.042 348.754,175.613 346.940,173.401 343.830 C 172.630 342.746,172.000 341.984,172.000 342.138 M212.210 344.981 C 212.755 346.005,213.200 347.182,213.200 347.598 C 213.200 348.013,213.380 348.464,213.600 348.600 C 213.832 348.743,214.000 350.937,214.000 353.824 L 214.000 358.800 211.600 358.800 C 209.491 358.800,209.200 358.706,209.200 358.024 C 209.200 357.115,208.728 356.766,207.035 356.421 L 205.800 356.169 205.600 351.585 L 205.400 347.000 203.974 346.880 C 202.864 346.787,202.311 346.999,201.474 347.835 L 200.400 348.909 200.400 364.775 C 200.400 381.929,200.363 381.643,202.580 381.547 C 203.791 381.495,203.789 381.493,202.400 381.247 L 201.000 381.000 200.885 366.400 C 200.744 348.510,200.969 347.200,204.182 347.200 L 205.200 347.200 205.200 351.520 C 205.200 356.109,205.446 356.800,207.080 356.800 C 207.791 356.800,208.000 357.024,208.000 357.786 C 208.000 359.540,213.151 360.505,214.411 358.986 C 215.960 357.120,213.972 345.402,211.800 343.600 C 211.481 343.335,211.666 343.957,212.210 344.981 M153.301 346.600 C 153.305 347.480,153.387 347.793,153.483 347.295 C 153.579 346.798,153.575 346.078,153.475 345.695 C 153.375 345.313,153.296 345.720,153.301 346.600 M230.472 346.459 C 230.594 347.735,230.691 347.810,232.471 348.015 C 233.500 348.134,234.255 348.089,234.148 347.915 C 234.040 347.742,233.333 347.600,232.576 347.600 C 231.384 347.600,231.200 347.470,231.200 346.624 C 231.200 346.087,231.007 345.528,230.772 345.382 C 230.491 345.209,230.388 345.581,230.472 346.459 M191.783 362.800 C 191.783 371.930,191.835 375.665,191.900 371.100 C 191.964 366.535,191.964 359.065,191.900 354.500 C 191.835 349.935,191.783 353.670,191.783 362.800 M152.931 352.600 C 152.933 354.140,153.005 354.721,153.092 353.891 C 153.179 353.061,153.177 351.801,153.089 351.091 C 153.000 350.381,152.929 351.060,152.931 352.600 M153.818 360.100 C 153.968 360.595,154.255 361.176,154.456 361.391 C 154.657 361.606,154.619 361.201,154.372 360.491 C 153.865 359.038,153.397 358.708,153.818 360.100 M163.600 359.582 C 163.930 359.805,164.545 359.991,164.967 359.994 C 165.990 360.002,165.671 359.773,164.200 359.444 C 163.324 359.248,163.162 359.285,163.600 359.582 M156.611 364.038 C 158.802 366.503,160.478 367.606,163.200 368.375 C 164.190 368.655,165.435 369.055,165.967 369.264 C 166.816 369.598,166.871 369.568,166.418 369.022 C 166.134 368.680,165.575 368.400,165.175 368.400 C 164.775 368.400,164.336 368.220,164.200 368.000 C 164.064 367.780,163.549 367.600,163.055 367.600 C 161.915 367.600,158.728 365.615,156.411 363.462 L 154.623 361.800 156.611 364.038 M173.566 366.700 C 177.273 374.196,175.882 388.400,171.441 388.400 C 171.114 388.400,170.736 388.580,170.600 388.800 C 170.461 389.025,168.537 389.200,166.200 389.200 C 163.863 389.200,161.939 389.025,161.800 388.800 C 161.664 388.580,161.217 388.400,160.808 388.400 C 160.398 388.400,158.800 387.177,157.258 385.683 C 154.041 382.566,153.973 382.861,157.144 386.180 C 161.783 391.037,170.857 391.529,174.115 387.100 C 177.242 382.850,177.093 370.716,173.856 366.100 C 172.268 363.834,172.209 363.955,173.566 366.700 M155.700 368.687 C 156.305 368.778,157.295 368.778,157.900 368.687 C 158.505 368.595,158.010 368.520,156.800 368.520 C 155.590 368.520,155.095 368.595,155.700 368.687 M212.413 370.684 C 212.567 371.701,212.987 372.748,213.347 373.010 C 214.461 373.825,214.266 383.236,213.087 385.540 C 210.941 389.736,200.213 390.892,197.189 387.254 C 197.073 387.114,196.088 386.190,195.001 385.200 L 193.023 383.400 195.011 385.631 C 200.555 391.851,210.637 391.866,213.783 385.659 C 215.358 382.553,215.339 372.550,213.758 372.154 C 212.987 371.960,212.800 371.653,212.800 370.580 C 212.800 369.847,212.650 369.154,212.466 369.041 C 212.282 368.927,212.258 369.667,212.413 370.684 M153.355 374.600 C 153.356 377.460,153.420 378.578,153.497 377.083 C 153.574 375.589,153.574 373.249,153.496 371.883 C 153.418 370.518,153.355 371.740,153.355 374.600 M166.953 374.600 C 166.953 377.240,167.018 378.268,167.097 376.884 C 167.175 375.501,167.174 373.341,167.095 372.084 C 167.016 370.828,166.952 371.960,166.953 374.600 M160.167 372.259 C 160.295 372.592,160.400 372.941,160.400 373.033 C 160.400 373.125,160.663 373.200,160.985 373.200 C 161.456 373.200,161.561 373.849,161.523 376.509 C 161.463 380.572,161.923 381.625,163.714 381.536 L 165.000 381.472 163.713 381.312 L 162.426 381.151 162.313 376.704 L 162.200 372.256 161.067 371.954 C 160.146 371.708,159.978 371.765,160.167 372.259 M205.232 379.169 C 205.214 379.481,204.892 380.111,204.515 380.569 C 203.869 381.353,203.883 381.351,204.762 380.542 C 205.275 380.070,205.597 379.440,205.479 379.142 C 205.304 378.703,205.257 378.708,205.232 379.169 " stroke="none" fill="#615b29" fill-rule="evenodd"></path><path id="path3" d="M84.938 20.302 C 84.684 20.466,97.914 20.600,114.338 20.600 C 148.086 20.600,145.442 20.342,147.190 23.800 C 147.635 24.680,148.000 25.166,148.000 24.880 C 148.000 23.885,146.869 22.194,145.539 21.200 L 144.200 20.200 114.800 20.102 C 98.630 20.048,85.192 20.138,84.938 20.302 M169.915 20.328 C 169.538 20.478,182.408 20.600,198.515 20.600 C 222.362 20.600,227.976 20.700,228.748 21.140 C 229.270 21.437,229.578 21.489,229.434 21.255 C 228.741 20.133,225.501 20.005,198.400 20.030 C 183.110 20.045,170.292 20.179,169.915 20.328 M252.600 20.748 C 250.940 21.779,249.793 23.155,249.255 24.760 C 248.625 26.641,248.609 130.280,249.239 132.600 C 249.667 134.178,251.758 136.804,252.578 136.796 C 252.810 136.793,252.439 136.349,251.754 135.809 C 249.261 133.844,249.400 137.214,249.400 78.600 C 249.400 25.719,249.411 24.982,250.200 23.642 C 252.127 20.370,249.669 20.615,281.929 20.483 C 314.017 20.353,312.524 20.269,314.608 22.307 C 315.448 23.128,315.855 23.384,315.513 22.877 C 315.171 22.369,314.296 21.514,313.568 20.977 L 312.245 20.000 283.022 20.001 C 255.213 20.003,253.742 20.039,252.600 20.748 M82.456 22.006 C 81.229 23.232,80.536 24.669,80.963 25.097 C 81.094 25.227,81.200 25.034,81.200 24.668 C 81.200 24.302,81.851 23.282,82.647 22.401 C 84.339 20.528,84.207 20.254,82.456 22.006 M166.806 22.194 C 166.063 22.961,165.532 23.637,165.627 23.698 C 165.722 23.758,166.456 23.131,167.259 22.304 C 168.061 21.477,168.591 20.800,168.437 20.800 C 168.283 20.800,167.549 21.427,166.806 22.194 M231.151 23.754 C 231.508 24.498,231.869 25.044,231.954 24.966 C 232.193 24.747,231.140 22.400,230.802 22.400 C 230.637 22.400,230.793 23.009,231.151 23.754 M316.046 24.400 C 316.065 24.730,316.224 25.450,316.400 26.000 L 316.720 27.000 316.754 26.000 C 316.773 25.450,316.613 24.730,316.400 24.400 C 316.055 23.867,316.016 23.867,316.046 24.400 M165.052 25.300 C 164.726 26.518,164.811 125.957,165.140 127.124 C 165.283 127.632,165.400 104.727,165.400 76.224 C 165.400 47.721,165.376 24.400,165.347 24.400 C 165.317 24.400,165.185 24.805,165.052 25.300 M80.594 78.600 C 80.594 107.640,80.642 119.461,80.700 104.869 C 80.758 90.277,80.758 66.517,80.700 52.069 C 80.642 37.621,80.594 49.560,80.594 78.600 M148.194 78.800 C 148.194 107.950,148.242 119.875,148.300 105.300 C 148.358 90.725,148.358 66.875,148.300 52.300 C 148.242 37.725,148.194 49.650,148.194 78.800 M232.121 76.400 C 232.085 104.230,232.179 127.309,232.328 127.686 C 232.575 128.307,232.548 59.964,232.292 35.800 C 232.233 30.300,232.157 48.570,232.121 76.400 M232.812 129.600 C 232.812 129.930,232.987 130.470,233.200 130.800 C 233.545 131.333,233.588 131.333,233.588 130.800 C 233.588 130.470,233.413 129.930,233.200 129.600 C 232.855 129.067,232.812 129.067,232.812 129.600 M316.449 131.200 C 316.416 131.530,316.289 132.250,316.167 132.800 C 315.975 133.664,316.007 133.703,316.399 133.088 C 316.648 132.697,316.775 131.977,316.681 131.488 C 316.586 131.000,316.482 130.870,316.449 131.200 M80.825 132.856 C 80.811 133.216,81.115 133.855,81.500 134.275 C 81.885 134.694,82.072 134.840,81.916 134.597 C 81.760 134.355,81.456 133.717,81.241 133.178 C 80.994 132.560,80.841 132.441,80.825 132.856 M146.905 134.297 C 146.413 135.256,146.189 135.930,146.408 135.795 C 146.930 135.473,148.084 133.230,147.924 132.849 C 147.856 132.686,147.397 133.337,146.905 134.297 M234.412 134.400 C 234.412 134.730,234.587 135.270,234.800 135.600 C 235.145 136.133,235.188 136.133,235.188 135.600 C 235.188 135.270,235.013 134.730,234.800 134.400 C 234.455 133.867,234.412 133.867,234.412 134.400 M315.123 134.732 C 313.422 137.114,315.054 137.000,282.715 137.000 C 266.479 137.000,253.735 137.140,254.394 137.310 C 255.052 137.481,268.328 137.571,283.896 137.510 L 312.200 137.400 313.600 136.523 C 314.370 136.040,315.227 135.275,315.503 134.823 C 316.127 133.803,315.835 133.734,315.123 134.732 M83.024 136.187 C 83.451 136.510,83.980 136.775,84.200 136.775 C 84.420 136.775,84.251 136.510,83.824 136.187 C 83.396 135.864,82.867 135.600,82.647 135.600 C 82.427 135.600,82.596 135.864,83.024 136.187 M85.515 137.272 C 85.892 137.421,98.890 137.544,114.400 137.544 C 129.910 137.544,142.908 137.421,143.285 137.272 C 143.662 137.122,130.664 137.000,114.400 137.000 C 98.136 137.000,85.138 137.122,85.515 137.272 M168.800 137.353 C 168.800 137.782,169.990 140.000,170.221 140.000 C 170.331 140.000,170.123 139.415,169.759 138.700 C 169.017 137.240,168.800 136.936,168.800 137.353 M172.408 144.400 C 173.206 145.943,177.533 152.311,177.966 152.579 C 178.315 152.795,172.626 144.071,172.111 143.600 C 171.990 143.490,172.124 143.850,172.408 144.400 M240.018 147.100 C 241.040 148.835,242.632 150.412,243.322 150.373 C 243.585 150.358,243.397 150.151,242.903 149.913 C 242.410 149.675,241.447 148.608,240.762 147.540 C 239.297 145.257,238.738 144.927,240.018 147.100 M84.765 149.313 C 84.416 149.581,83.902 150.250,83.621 150.800 C 83.232 151.565,83.386 151.481,84.274 150.446 L 85.436 149.091 117.418 149.246 C 135.008 149.331,146.700 149.288,143.400 149.152 C 131.505 148.659,85.452 148.786,84.765 149.313 M154.000 150.000 C 155.542 150.494,156.364 150.494,155.600 150.000 C 155.270 149.787,154.550 149.627,154.000 149.646 L 153.000 149.680 154.000 150.000 M156.978 150.924 C 158.800 152.039,161.721 155.095,163.039 157.264 C 164.428 159.550,165.287 160.483,164.361 158.700 C 162.527 155.168,157.941 150.322,156.528 150.424 C 156.348 150.436,156.550 150.661,156.978 150.924 M245.400 150.800 C 246.060 150.968,247.050 151.109,247.600 151.113 L 248.600 151.120 247.600 150.800 C 247.050 150.624,246.060 150.483,245.400 150.487 L 244.200 150.495 245.400 150.800 M250.600 151.600 C 251.260 151.768,252.250 151.909,252.800 151.913 L 253.800 151.920 252.800 151.600 C 252.250 151.424,251.260 151.283,250.600 151.287 L 249.400 151.295 250.600 151.600 M255.600 152.400 C 256.150 152.576,257.140 152.717,257.800 152.713 L 259.000 152.705 257.800 152.400 C 257.140 152.232,256.150 152.091,255.600 152.087 L 254.600 152.080 255.600 152.400 M260.600 153.200 C 261.260 153.368,262.250 153.509,262.800 153.513 L 263.800 153.520 262.800 153.200 C 262.250 153.024,261.260 152.883,260.600 152.887 L 259.400 152.895 260.600 153.200 M178.855 153.839 C 179.651 155.064,182.027 157.708,182.184 157.542 C 182.257 157.464,181.416 156.410,180.314 155.200 C 179.212 153.990,178.555 153.377,178.855 153.839 M265.800 154.000 C 266.460 154.168,267.450 154.309,268.000 154.313 L 269.000 154.320 268.000 154.000 C 267.450 153.824,266.460 153.683,265.800 153.687 L 264.600 153.695 265.800 154.000 M271.000 154.800 C 271.660 154.968,272.650 155.109,273.200 155.113 L 274.200 155.120 273.200 154.800 C 272.650 154.624,271.660 154.483,271.000 154.487 L 269.800 154.495 271.000 154.800 M276.200 155.600 C 276.860 155.768,277.850 155.909,278.400 155.913 L 279.400 155.920 278.400 155.600 C 277.850 155.424,276.860 155.283,276.200 155.287 L 275.000 155.295 276.200 155.600 M281.400 156.405 C 282.605 156.707,289.079 156.926,288.767 156.655 C 288.675 156.576,286.710 156.420,284.400 156.308 C 282.090 156.197,280.740 156.241,281.400 156.405 M290.600 157.200 C 291.796 157.714,292.795 157.714,292.000 157.200 C 291.670 156.987,291.040 156.822,290.600 156.834 L 289.800 156.856 290.600 157.200 M80.257 159.100 C 79.940 161.016,79.977 163.198,80.341 164.121 C 80.497 164.518,80.635 163.213,80.648 161.221 C 80.672 157.201,80.619 156.910,80.257 159.100 M185.370 161.006 C 186.926 162.549,188.830 164.226,189.600 164.731 C 190.890 165.578,190.875 165.546,189.405 164.325 C 188.528 163.596,186.624 161.920,185.175 160.600 L 182.540 158.200 185.370 161.006 M296.800 159.390 C 296.800 159.494,297.385 159.865,298.100 160.214 L 299.400 160.848 298.400 160.033 C 297.437 159.248,296.800 158.992,296.800 159.390 M165.820 162.040 C 166.389 163.162,166.934 163.999,167.033 163.901 C 167.223 163.710,165.251 160.000,164.959 160.000 C 164.864 160.000,165.252 160.918,165.820 162.040 M301.600 162.711 C 302.810 163.815,303.864 164.657,303.942 164.583 C 304.162 164.376,302.359 162.690,300.800 161.644 C 299.871 161.021,300.140 161.380,301.600 162.711 M307.055 168.700 C 309.459 172.056,309.791 172.456,309.555 171.715 C 309.316 170.965,305.436 165.633,305.117 165.615 C 304.962 165.607,305.834 166.995,307.055 168.700 M168.557 167.117 C 170.517 170.908,174.405 174.981,177.615 176.607 C 180.421 178.030,180.077 177.585,176.962 175.763 C 174.241 174.171,172.426 172.280,169.803 168.300 C 168.177 165.833,167.619 165.304,168.557 167.117 M193.200 167.167 C 194.163 167.952,194.800 168.208,194.800 167.810 C 194.800 167.706,194.215 167.335,193.500 166.986 L 192.200 166.352 193.200 167.167 M81.600 167.753 C 81.600 168.182,82.790 170.400,83.021 170.400 C 83.131 170.400,82.923 169.815,82.559 169.100 C 81.817 167.640,81.600 167.336,81.600 167.753 M90.600 170.787 C 86.420 170.904,93.440 171.000,106.200 171.000 C 118.960 171.000,127.600 170.886,125.400 170.747 C 120.772 170.454,101.663 170.476,90.600 170.787 M135.200 171.620 C 136.190 171.797,137.810 171.930,138.800 171.917 L 140.600 171.893 138.600 171.582 C 137.500 171.410,135.880 171.277,135.000 171.285 L 133.400 171.300 135.200 171.620 M202.800 171.600 C 203.130 171.813,203.670 171.988,204.000 171.988 C 204.533 171.988,204.533 171.945,204.000 171.600 C 203.670 171.387,203.130 171.212,202.800 171.212 C 202.267 171.212,202.267 171.255,202.800 171.600 M143.800 172.423 C 144.680 172.605,145.850 172.746,146.400 172.737 L 147.400 172.720 146.400 172.400 C 145.850 172.224,144.680 172.083,143.800 172.086 L 142.200 172.092 143.800 172.423 M207.600 173.200 C 207.930 173.413,208.560 173.578,209.000 173.566 L 209.800 173.544 209.000 173.200 C 207.804 172.686,206.805 172.686,207.600 173.200 M210.600 174.000 C 211.040 174.189,211.670 174.344,212.000 174.344 C 212.378 174.344,212.304 174.217,211.800 174.000 C 211.360 173.811,210.730 173.656,210.400 173.656 C 210.022 173.656,210.096 173.783,210.600 174.000 M213.800 174.800 C 214.240 174.989,215.050 175.138,215.600 175.132 L 216.600 175.120 215.600 174.800 C 215.050 174.624,214.240 174.474,213.800 174.468 L 213.000 174.456 213.800 174.800 M154.001 176.596 C 154.770 177.473,155.445 178.268,155.500 178.362 C 155.555 178.456,155.687 178.447,155.793 178.341 C 155.899 178.235,155.224 177.440,154.293 176.574 L 152.601 175.000 154.001 176.596 M218.000 175.600 C 218.550 175.776,219.360 175.920,219.800 175.920 C 220.433 175.920,220.392 175.854,219.600 175.600 C 219.050 175.424,218.240 175.280,217.800 175.280 C 217.167 175.280,217.208 175.346,218.000 175.600 M311.217 175.900 C 311.239 176.301,312.762 179.070,312.783 178.749 C 312.811 178.335,311.605 175.600,311.395 175.600 C 311.288 175.600,311.208 175.735,311.217 175.900 M222.400 176.400 C 222.950 176.576,223.850 176.720,224.400 176.720 L 225.400 176.720 224.400 176.400 C 223.850 176.224,222.950 176.080,222.400 176.080 L 221.400 176.080 222.400 176.400 M228.200 177.201 C 229.794 177.553,233.484 177.736,233.167 177.449 C 233.075 177.365,231.560 177.196,229.800 177.073 C 227.450 176.908,227.025 176.942,228.200 177.201 M237.200 178.017 C 238.410 178.184,240.930 178.311,242.800 178.299 L 246.200 178.276 242.800 177.978 C 240.930 177.814,238.410 177.687,237.200 177.696 L 235.000 177.713 237.200 178.017 M269.700 178.296 C 270.965 178.375,273.035 178.375,274.300 178.296 C 275.565 178.216,274.530 178.151,272.000 178.151 C 269.470 178.151,268.435 178.216,269.700 178.296 M278.600 178.800 C 279.796 179.314,280.795 179.314,280.000 178.800 C 279.670 178.587,279.040 178.422,278.600 178.434 L 277.800 178.456 278.600 178.800 M157.144 180.504 C 157.859 181.552,158.715 183.056,159.046 183.848 C 159.376 184.639,159.747 185.186,159.869 185.064 C 160.170 184.763,157.405 179.864,156.537 179.161 C 156.156 178.852,156.429 179.457,157.144 180.504 M282.288 180.572 C 283.217 181.381,284.522 182.704,285.188 183.512 C 285.855 184.321,286.400 184.840,286.400 184.667 C 286.400 184.188,282.331 179.989,281.409 179.517 C 280.964 179.289,281.360 179.764,282.288 180.572 M313.612 181.600 C 313.612 181.930,313.787 182.470,314.000 182.800 C 314.345 183.333,314.388 183.333,314.388 182.800 C 314.388 182.470,314.213 181.930,314.000 181.600 C 313.655 181.067,313.612 181.067,313.612 181.600 M191.600 182.800 C 191.930 183.013,192.470 183.188,192.800 183.188 C 193.333 183.188,193.333 183.145,192.800 182.800 C 192.470 182.587,191.930 182.412,191.600 182.412 C 191.067 182.412,191.067 182.455,191.600 182.800 M194.000 183.600 C 194.330 183.813,194.870 183.988,195.200 183.988 C 195.733 183.988,195.733 183.945,195.200 183.600 C 194.870 183.387,194.330 183.212,194.000 183.212 C 193.467 183.212,193.467 183.255,194.000 183.600 M314.434 184.000 C 314.446 184.330,314.611 184.960,314.800 185.400 L 315.144 186.200 315.166 185.400 C 315.178 184.960,315.013 184.330,314.800 184.000 C 314.455 183.467,314.415 183.467,314.434 184.000 M199.200 185.200 C 200.568 185.638,201.619 185.638,200.600 185.200 C 200.160 185.011,199.440 184.862,199.000 184.868 C 198.357 184.877,198.396 184.943,199.200 185.200 M287.482 187.389 C 288.073 188.593,288.623 189.511,288.705 189.429 C 288.884 189.249,286.867 185.200,286.598 185.200 C 286.494 185.200,286.892 186.185,287.482 187.389 M160.012 186.000 C 160.012 186.330,160.187 186.870,160.400 187.200 C 160.745 187.733,160.788 187.733,160.788 187.200 C 160.788 186.870,160.613 186.330,160.400 186.000 C 160.055 185.467,160.012 185.467,160.012 186.000 M202.600 186.000 C 203.040 186.189,203.670 186.344,204.000 186.344 C 204.378 186.344,204.304 186.217,203.800 186.000 C 203.360 185.811,202.730 185.656,202.400 185.656 C 202.022 185.656,202.096 185.783,202.600 186.000 M206.000 186.800 C 206.550 186.976,207.360 187.126,207.800 187.132 L 208.600 187.144 207.800 186.800 C 207.360 186.611,206.550 186.462,206.000 186.468 L 205.000 186.480 206.000 186.800 M315.256 186.800 C 315.256 187.130,315.411 187.760,315.600 188.200 C 315.817 188.704,315.944 188.778,315.944 188.400 C 315.944 188.070,315.789 187.440,315.600 187.000 C 315.383 186.496,315.256 186.422,315.256 186.800 M210.000 187.600 C 210.550 187.776,211.450 187.920,212.000 187.920 L 213.000 187.920 212.000 187.600 C 211.450 187.424,210.550 187.280,210.000 187.280 L 209.000 187.280 210.000 187.600 M160.812 188.400 C 160.812 188.730,160.987 189.270,161.200 189.600 C 161.545 190.133,161.588 190.133,161.588 189.600 C 161.588 189.270,161.413 188.730,161.200 188.400 C 160.855 187.867,160.812 187.867,160.812 188.400 M214.800 188.400 C 215.350 188.576,216.250 188.720,216.800 188.720 L 217.800 188.720 216.800 188.400 C 216.250 188.224,215.350 188.080,214.800 188.080 L 213.800 188.080 214.800 188.400 M220.200 189.200 C 220.860 189.368,222.120 189.504,223.000 189.503 L 224.600 189.500 222.800 189.180 C 220.357 188.745,218.470 188.760,220.200 189.200 M82.305 189.629 C 81.923 189.852,81.404 190.432,81.153 190.917 C 80.757 191.682,80.853 191.653,81.870 190.700 L 83.044 189.600 113.122 189.600 C 146.452 189.600,144.354 189.436,145.002 192.090 C 145.368 193.588,145.029 240.133,144.646 241.000 L 144.292 241.800 144.933 241.000 C 145.505 240.287,145.576 237.612,145.587 216.280 C 145.601 190.672,145.601 190.671,143.622 189.612 C 142.570 189.049,83.273 189.066,82.305 189.629 M227.800 190.023 C 228.680 190.205,229.940 190.344,230.600 190.331 C 231.644 190.311,231.592 190.265,230.200 189.977 C 229.320 189.795,228.060 189.656,227.400 189.669 C 226.356 189.689,226.408 189.735,227.800 190.023 M316.068 190.000 C 316.088 191.039,316.718 192.746,316.732 191.800 C 316.738 191.360,316.589 190.640,316.400 190.200 C 316.189 189.710,316.061 189.632,316.068 190.000 M161.656 191.000 C 161.656 191.440,161.811 192.160,162.000 192.600 L 162.344 193.400 162.344 192.600 C 162.344 192.160,162.189 191.440,162.000 191.000 L 161.656 190.200 161.656 191.000 M234.200 190.800 C 234.860 190.968,236.120 191.106,237.000 191.107 L 238.600 191.108 237.000 190.777 C 236.120 190.595,234.860 190.457,234.200 190.470 L 233.000 190.495 234.200 190.800 M242.200 191.618 C 245.064 192.065,247.731 192.030,245.200 191.580 C 244.210 191.403,242.680 191.270,241.800 191.283 C 240.241 191.306,240.252 191.315,242.200 191.618 M250.400 192.420 C 251.390 192.597,252.740 192.733,253.400 192.723 L 254.600 192.705 253.400 192.400 C 252.740 192.232,251.390 192.096,250.400 192.097 L 248.600 192.100 250.400 192.420 M80.588 216.000 C 80.588 229.090,80.638 234.445,80.700 227.900 C 80.761 221.355,80.761 210.645,80.700 204.100 C 80.638 197.555,80.588 202.910,80.588 216.000 M257.000 193.200 C 257.660 193.368,258.740 193.505,259.400 193.505 L 260.600 193.505 259.400 193.200 C 258.740 193.032,257.660 192.895,257.000 192.895 L 255.800 192.895 257.000 193.200 M316.868 193.800 C 316.874 194.240,317.024 195.050,317.200 195.600 L 317.520 196.600 317.532 195.600 C 317.538 195.050,317.389 194.240,317.200 193.800 L 316.856 193.000 316.868 193.800 M262.200 194.000 C 262.860 194.168,263.850 194.309,264.400 194.313 L 265.400 194.320 264.400 194.000 C 263.850 193.824,262.860 193.683,262.200 193.687 L 261.000 193.695 262.200 194.000 M162.487 194.600 C 162.491 195.040,162.632 195.940,162.800 196.600 C 163.074 197.678,163.106 197.698,163.113 196.800 C 163.117 196.250,162.976 195.350,162.800 194.800 C 162.549 194.016,162.481 193.973,162.487 194.600 M267.000 194.800 C 267.660 194.968,268.650 195.109,269.200 195.113 L 270.200 195.120 269.200 194.800 C 268.650 194.624,267.660 194.483,267.000 194.487 L 265.800 194.495 267.000 194.800 M271.400 195.600 C 272.596 196.114,273.595 196.114,272.800 195.600 C 272.470 195.387,271.840 195.222,271.400 195.234 L 270.600 195.256 271.400 195.600 M273.820 196.303 C 274.029 196.470,274.823 197.145,275.585 197.803 C 276.385 198.495,276.730 198.662,276.402 198.200 C 275.678 197.180,274.312 196.020,273.820 196.009 C 273.580 196.003,273.580 196.112,273.820 196.303 M291.256 197.200 C 291.256 197.530,291.411 198.160,291.600 198.600 C 291.817 199.104,291.944 199.178,291.944 198.800 C 291.944 198.470,291.789 197.840,291.600 197.400 C 291.383 196.896,291.256 196.822,291.256 197.200 M317.687 198.400 C 317.691 198.950,317.832 199.940,318.000 200.600 L 318.305 201.800 318.313 200.600 C 318.317 199.940,318.176 198.950,318.000 198.400 L 317.680 197.400 317.687 198.400 M163.507 217.435 C 163.566 227.756,163.668 237.100,163.733 238.200 C 163.799 239.300,163.875 231.560,163.903 221.000 C 163.931 210.440,163.829 201.096,163.677 200.235 C 163.525 199.375,163.448 207.115,163.507 217.435 M277.122 218.938 C 277.256 240.641,277.237 240.852,274.899 242.779 C 274.084 243.451,273.603 244.000,273.830 244.000 C 274.348 244.000,276.554 241.693,277.152 240.526 C 277.662 239.532,277.798 200.530,277.294 199.738 C 277.132 199.483,277.055 208.123,277.122 218.938 M292.068 200.200 C 292.062 200.640,292.211 201.360,292.400 201.800 C 292.838 202.819,292.838 201.768,292.400 200.400 C 292.143 199.596,292.077 199.557,292.068 200.200 M292.856 203.800 C 292.856 204.240,293.011 204.960,293.200 205.400 L 293.544 206.200 293.544 205.400 C 293.544 204.960,293.389 204.240,293.200 203.800 L 292.856 203.000 292.856 203.800 M318.469 204.200 C 318.456 204.860,318.595 206.120,318.777 207.000 C 319.065 208.392,319.111 208.444,319.131 207.400 C 319.144 206.740,319.005 205.480,318.823 204.600 C 318.535 203.208,318.489 203.156,318.469 204.200 M293.680 207.600 C 293.680 208.150,293.824 209.050,294.000 209.600 L 294.320 210.600 294.320 209.600 C 294.320 209.050,294.176 208.150,294.000 207.600 L 293.680 206.600 293.680 207.600 M319.246 211.068 C 319.205 211.835,318.907 211.964,316.700 212.171 C 315.325 212.300,313.480 212.473,312.600 212.557 C 311.720 212.640,312.746 212.683,314.881 212.654 C 318.916 212.598,319.823 212.260,319.484 210.942 C 319.321 210.311,319.286 210.330,319.246 211.068 M294.534 212.400 C 294.615 213.635,296.647 213.831,303.200 213.235 C 307.154 212.875,307.033 212.865,301.132 213.060 L 294.864 213.266 294.667 212.333 C 294.480 211.452,294.473 211.455,294.534 212.400 M303.860 221.500 C 302.587 223.205,302.233 223.798,303.073 222.817 C 303.913 221.836,305.069 220.499,305.643 219.844 L 306.685 218.655 308.775 221.527 C 309.924 223.107,310.957 224.400,311.070 224.400 C 311.249 224.400,310.726 223.624,307.636 219.313 C 306.673 217.969,306.363 218.148,303.860 221.500 M297.423 229.700 C 295.329 232.395,293.621 234.870,293.627 235.200 C 293.668 237.354,307.200 249.625,307.200 247.508 C 307.200 247.275,306.943 247.316,306.596 247.603 C 305.992 248.104,294.411 236.775,294.072 235.351 C 294.001 235.055,295.351 232.994,297.072 230.771 C 301.593 224.929,301.688 224.800,301.449 224.800 C 301.329 224.800,299.517 227.005,297.423 229.700 M312.416 226.563 C 314.195 229.040,314.906 229.479,313.257 227.082 C 312.560 226.069,311.778 225.110,311.520 224.950 C 311.261 224.791,311.665 225.516,312.416 226.563 M315.616 230.963 C 317.395 233.440,318.106 233.879,316.457 231.482 C 315.760 230.469,314.978 229.510,314.720 229.350 C 314.461 229.191,314.865 229.916,315.616 230.963 M318.367 234.662 C 319.501 236.379,319.543 236.278,316.500 239.140 L 313.800 241.679 316.700 239.199 C 319.950 236.419,320.007 236.278,318.565 234.600 L 317.534 233.400 318.367 234.662 M80.889 240.866 C 80.974 241.122,81.484 241.609,82.022 241.948 L 83.000 242.563 82.030 241.482 C 80.983 240.314,80.644 240.131,80.889 240.866 M164.003 240.687 C 163.999 241.319,166.681 244.001,167.313 243.997 C 167.581 243.996,167.285 243.655,166.657 243.241 C 166.028 242.826,165.174 241.972,164.759 241.343 C 164.345 240.715,164.004 240.419,164.003 240.687 M310.395 244.469 L 307.400 247.283 310.400 244.757 C 312.050 243.368,313.475 242.179,313.567 242.116 C 313.658 242.052,313.656 241.923,313.561 241.828 C 313.467 241.733,312.042 242.922,310.395 244.469 M97.900 242.700 C 106.095 242.760,119.505 242.760,127.700 242.700 C 135.895 242.639,129.190 242.590,112.800 242.590 C 96.410 242.590,89.705 242.639,97.900 242.700 M194.069 244.300 C 208.517 244.358,232.277 244.358,246.869 244.300 C 261.461 244.242,249.640 244.194,220.600 244.194 C 191.560 244.194,179.621 244.242,194.069 244.300 M82.031 256.236 C 81.354 256.805,80.800 257.445,80.800 257.658 C 80.800 257.871,81.234 257.540,81.765 256.922 L 82.731 255.800 112.923 255.800 C 139.156 255.800,143.216 255.879,143.878 256.400 C 144.296 256.730,144.215 256.595,143.697 256.100 L 142.755 255.200 113.008 255.200 L 83.261 255.200 82.031 256.236 M168.715 255.528 C 168.338 255.678,200.164 255.800,239.439 255.800 C 278.713 255.800,310.432 255.683,309.924 255.540 C 308.689 255.192,169.591 255.180,168.715 255.528 M165.502 256.902 C 164.279 257.902,162.400 260.347,162.400 260.938 C 162.400 261.148,162.895 260.588,163.500 259.692 C 164.595 258.070,166.058 256.725,167.200 256.291 C 167.733 256.089,167.733 256.060,167.200 256.034 C 166.870 256.017,166.106 256.408,165.502 256.902 M312.426 256.906 C 313.165 257.404,314.317 258.590,314.985 259.540 L 316.200 261.268 316.311 288.598 C 316.405 311.838,316.333 316.187,315.831 317.663 C 315.343 319.101,315.338 319.270,315.804 318.646 C 316.780 317.338,316.844 315.212,316.721 288.000 L 316.600 261.399 315.440 259.566 C 314.383 257.896,312.244 256.000,311.416 256.000 C 311.232 256.000,311.687 256.408,312.426 256.906 M145.000 289.474 L 145.000 321.271 144.056 322.035 C 143.145 322.773,142.050 322.800,112.938 322.800 L 82.764 322.800 81.782 321.818 C 81.242 321.278,80.800 320.995,80.800 321.189 C 80.800 323.211,80.627 323.200,113.085 323.200 L 143.262 323.200 144.431 322.031 L 145.600 320.862 145.600 289.454 C 145.600 272.180,145.465 257.964,145.300 257.862 C 145.135 257.760,145.000 271.985,145.000 289.474 M80.590 289.200 C 80.590 306.250,80.640 313.225,80.700 304.700 C 80.760 296.175,80.760 282.225,80.700 273.700 C 80.640 265.175,80.590 272.150,80.590 289.200 M161.850 262.850 C 161.519 264.503,161.604 315.133,161.940 316.324 C 162.083 316.832,162.200 304.727,162.200 289.424 C 162.200 274.121,162.178 261.600,162.150 261.600 C 162.123 261.600,161.988 262.163,161.850 262.850 M313.269 321.031 C 312.317 321.784,311.702 322.400,311.902 322.400 C 312.103 322.400,312.972 321.777,313.833 321.017 C 315.837 319.247,315.514 319.255,313.269 321.031 M168.315 322.872 C 168.692 323.021,200.680 323.144,239.400 323.144 C 278.120 323.144,310.108 323.021,310.485 322.872 C 310.862 322.722,278.874 322.600,239.400 322.600 C 199.926 322.600,167.938 322.722,168.315 322.872 " stroke="none" fill="#847424" fill-rule="evenodd"></path><path id="path4" d="M161.400 338.796 C 160.143 339.024,160.564 339.099,163.367 339.143 C 165.328 339.174,166.858 339.133,166.767 339.051 C 166.369 338.697,162.864 338.530,161.400 338.796 M200.000 338.796 C 198.935 339.023,199.405 339.107,201.967 339.147 C 203.818 339.176,205.258 339.133,205.167 339.051 C 204.768 338.695,201.278 338.523,200.000 338.796 M195.973 340.046 C 195.189 340.501,194.311 341.262,194.023 341.737 C 193.599 342.436,193.719 342.395,194.650 341.522 C 195.282 340.929,196.430 340.171,197.200 339.838 C 197.970 339.504,198.330 339.228,198.000 339.225 C 197.670 339.221,196.758 339.591,195.973 340.046 M207.533 340.080 C 210.802 341.664,212.000 344.663,212.000 351.260 L 212.000 356.000 209.014 356.000 L 206.027 356.000 205.898 351.700 L 205.770 347.400 205.685 351.713 C 205.622 354.884,205.732 356.060,206.100 356.158 C 208.512 356.799,209.010 357.087,209.128 357.908 C 209.244 358.716,209.479 358.800,211.628 358.800 L 214.000 358.800 214.000 353.824 C 214.000 350.937,213.832 348.743,213.600 348.600 C 213.380 348.464,213.200 348.031,213.200 347.638 C 213.200 344.958,208.513 339.156,206.400 339.221 C 206.070 339.232,206.580 339.618,207.533 340.080 M247.524 340.600 C 247.614 341.370,247.758 342.000,247.844 342.000 C 247.930 342.000,248.000 341.370,248.000 340.600 C 248.000 339.830,247.856 339.200,247.680 339.200 C 247.504 339.200,247.434 339.830,247.524 340.600 M155.880 340.961 C 154.733 342.024,153.593 344.432,153.613 345.749 C 153.620 346.217,153.956 345.645,154.359 344.478 C 154.762 343.312,155.600 341.827,156.221 341.178 C 157.577 339.763,157.338 339.610,155.880 340.961 M170.571 341.111 C 171.215 341.815,171.821 342.312,171.918 342.215 C 172.111 342.022,171.453 341.334,170.198 340.415 C 169.759 340.094,169.927 340.407,170.571 341.111 M248.000 343.639 L 248.000 344.768 244.700 344.884 L 241.400 345.000 241.200 365.600 L 241.000 386.200 239.000 386.437 C 237.900 386.568,237.225 386.703,237.500 386.737 C 237.775 386.772,238.000 387.340,238.000 388.000 L 238.000 389.200 240.400 389.200 L 242.800 389.200 242.800 368.880 C 242.800 345.640,242.424 347.600,246.880 347.600 L 250.000 347.600 250.000 345.247 C 250.000 343.054,249.932 342.880,249.000 342.702 C 248.124 342.535,248.000 342.651,248.000 343.639 M172.704 344.507 C 173.105 345.626,173.326 347.828,173.355 351.000 L 173.400 355.800 170.514 355.917 L 167.628 356.034 167.499 351.917 L 167.369 347.800 167.284 351.913 C 167.223 354.924,167.334 356.061,167.700 356.158 C 170.112 356.799,170.610 357.087,170.728 357.908 C 170.844 358.716,171.079 358.800,173.228 358.800 L 175.600 358.800 175.574 355.100 C 175.544 350.728,174.954 347.719,173.609 345.071 C 172.355 342.601,171.927 342.335,172.704 344.507 M160.770 345.032 C 159.631 346.245,159.296 355.737,160.324 357.659 C 160.838 358.618,162.882 360.013,163.732 359.984 C 163.990 359.975,163.729 359.712,163.154 359.399 C 161.853 358.693,161.426 356.167,161.828 351.561 C 162.166 347.684,163.013 346.622,165.573 346.866 C 167.526 347.052,167.712 346.436,166.142 344.981 C 164.640 343.590,162.102 343.614,160.770 345.032 M199.458 344.981 L 198.400 345.962 198.400 362.727 C 198.400 380.871,198.489 381.600,200.709 381.600 C 201.215 381.600,201.253 381.493,200.880 381.120 C 200.523 380.763,200.400 376.581,200.400 364.775 L 200.400 348.909 201.488 347.821 C 202.368 346.941,202.865 346.760,204.088 346.877 C 205.952 347.055,206.165 346.102,204.546 344.829 C 203.063 343.663,200.808 343.730,199.458 344.981 M192.276 345.210 C 192.130 345.755,192.028 346.740,192.049 347.400 C 192.080 348.357,192.159 348.236,192.442 346.800 C 192.829 344.833,192.702 343.617,192.276 345.210 M230.500 345.232 C 230.885 345.456,231.200 346.070,231.200 346.596 C 231.200 347.412,231.420 347.570,232.700 347.676 L 234.200 347.800 234.400 366.967 C 234.528 379.209,234.745 386.182,235.000 386.267 C 235.487 386.430,235.168 346.059,234.676 345.300 C 234.478 344.994,233.470 344.805,232.076 344.812 C 230.335 344.821,229.965 344.920,230.500 345.232 M153.350 352.200 C 153.351 354.620,153.416 355.558,153.496 354.285 C 153.576 353.012,153.575 351.032,153.494 349.885 C 153.414 348.738,153.349 349.780,153.350 352.200 M153.634 358.200 C 153.622 358.640,153.787 359.270,154.000 359.600 C 154.514 360.395,154.514 359.396,154.000 358.200 L 153.656 357.400 153.634 358.200 M165.400 360.400 C 166.596 360.914,167.595 360.914,166.800 360.400 C 166.470 360.187,165.840 360.022,165.400 360.034 L 164.600 360.056 165.400 360.400 M154.401 360.699 C 154.397 362.240,161.106 367.600,163.038 367.600 C 163.541 367.600,164.064 367.780,164.200 368.000 C 164.336 368.220,164.786 368.400,165.201 368.400 C 165.615 368.400,166.235 368.800,166.577 369.289 C 167.486 370.586,167.372 369.287,166.444 367.765 C 165.883 366.846,165.192 366.397,163.745 366.012 C 157.955 364.472,156.552 363.725,155.156 361.435 C 154.742 360.756,154.402 360.424,154.401 360.699 M168.600 361.464 C 175.130 364.900,175.869 382.068,169.636 385.520 C 163.295 389.032,155.720 386.252,154.164 379.843 C 153.891 378.719,153.653 378.229,153.634 378.754 C 153.529 381.705,158.507 388.400,160.808 388.400 C 161.217 388.400,161.664 388.580,161.800 388.800 C 161.939 389.025,163.863 389.200,166.200 389.200 C 168.537 389.200,170.461 389.025,170.600 388.800 C 170.736 388.580,171.114 388.400,171.441 388.400 C 174.634 388.400,177.077 376.574,175.153 370.428 C 174.599 368.658,172.097 363.634,171.466 363.024 C 170.478 362.069,168.452 360.801,167.938 360.816 C 167.642 360.825,167.940 361.116,168.600 361.464 M153.756 369.369 C 153.629 369.702,153.617 370.205,153.731 370.487 C 153.844 370.769,153.951 370.595,153.968 370.100 C 153.998 369.262,154.180 369.200,156.600 369.200 C 159.040 369.200,159.326 369.328,159.287 370.400 C 159.156 374.020,160.017 379.767,160.818 380.619 C 161.968 381.843,162.584 381.892,161.951 380.709 C 161.678 380.199,161.495 378.401,161.523 376.509 C 161.561 373.869,161.454 373.200,160.993 373.200 C 160.407 373.200,160.108 372.372,159.910 370.200 L 159.800 369.000 156.894 368.882 C 154.594 368.789,153.940 368.891,153.756 369.369 M206.096 369.264 C 205.754 369.606,205.600 371.314,205.600 374.747 C 205.600 381.034,206.065 380.763,206.369 374.297 L 206.600 369.400 208.958 369.278 C 212.092 369.117,212.102 369.136,212.055 375.118 C 211.990 383.469,210.263 386.023,204.268 386.637 C 198.938 387.183,195.660 386.126,193.710 383.231 C 193.209 382.489,192.800 382.114,192.800 382.398 C 192.800 383.143,197.133 387.369,198.912 388.359 C 203.174 390.730,211.254 389.123,213.087 385.540 C 214.275 383.218,214.460 373.825,213.335 373.002 C 212.969 372.734,212.564 371.724,212.435 370.757 L 212.200 369.000 209.396 368.884 C 207.558 368.809,206.420 368.940,206.096 369.264 M167.342 374.600 C 167.341 376.580,167.408 377.440,167.492 376.512 C 167.576 375.584,167.577 373.964,167.495 372.912 C 167.412 371.860,167.343 372.620,167.342 374.600 M192.028 378.633 C 192.044 379.495,192.217 380.560,192.414 381.000 C 192.648 381.522,192.688 381.037,192.532 379.600 C 192.243 376.958,191.989 376.470,192.028 378.633 M166.616 379.949 C 166.475 380.395,165.995 380.875,165.549 381.016 C 165.104 381.157,164.818 381.351,164.913 381.446 C 165.008 381.541,165.386 381.503,165.754 381.362 C 166.468 381.088,167.394 379.661,167.069 379.336 C 166.961 379.228,166.757 379.504,166.616 379.949 M204.456 380.834 C 203.936 381.255,203.666 381.594,203.856 381.587 C 204.344 381.569,205.776 380.443,205.571 380.239 C 205.477 380.145,204.975 380.413,204.456 380.834 " stroke="none" fill="#747474" fill-rule="evenodd"></path></g></svg>